<svg width="163" height="97" viewBox="0 0 163 97" fill="none" xmlns="http://www.w3.org/2000/svg">
<path d="M26.1918 28.4768L27.0486 28.685L27.2552 27.8279C29.4231 18.8353 37.5103 12.1575 47.151 12.1575C52.0836 12.1575 56.6066 13.9041 60.1407 16.8146L61.214 17.6986L61.5535 16.3502C63.7924 7.4587 71.8309 0.879803 81.4 0.879803C90.8312 0.879803 98.7758 7.27047 101.146 15.9677L101.507 17.29L102.559 16.412C106.108 13.4516 110.67 11.6717 115.649 11.6717C125.29 11.6717 133.377 18.3496 135.545 27.3422L135.751 28.1993L136.608 27.9911C138.161 27.6137 139.783 27.4135 141.453 27.4135C152.755 27.4135 161.92 36.5906 161.92 47.9141C161.92 48.0699 161.918 48.2252 161.915 48.3802L161.914 48.3998L161.915 48.4194C161.918 48.5743 161.92 48.7297 161.92 48.8855C161.92 60.209 152.755 69.3861 141.453 69.3861C139.783 69.3861 138.16 69.1859 136.608 68.8085L135.751 68.6003L135.545 69.4574C133.377 78.45 125.29 85.1279 115.649 85.1279C110.67 85.1279 106.108 83.348 102.559 80.3876L101.507 79.5096L101.146 80.8319C98.7758 89.5291 90.8313 95.9198 81.4 95.9198C71.8309 95.9198 63.7924 89.3409 61.5535 80.4494L61.214 79.1011L60.1407 79.985C56.6066 82.8955 52.0836 84.6421 47.151 84.6421C37.5103 84.6421 29.4231 77.9643 27.2552 68.9717L27.0486 68.1146L26.1918 68.3228C24.6395 68.7002 23.0172 68.9004 21.347 68.9004C10.0447 68.9004 0.879998 59.7233 0.879998 48.3998C0.879997 37.0763 10.0447 27.8992 21.347 27.8992C23.0172 27.8992 24.6395 28.0994 26.1918 28.4768Z" fill="#09332E" stroke="white" stroke-width="1.76"/>
<path fill-rule="evenodd" clip-rule="evenodd" d="M46.2855 39.282C46.6074 40.3746 47.2747 41.8484 46.992 42.9748C46.5408 44.7728 44.2735 43.6513 43.3972 42.9952C43.1646 42.821 42.9337 42.6439 42.7114 42.4568C42.4467 42.2343 42.1856 42.0068 41.9336 41.7699C41.2107 42.634 40.1853 43.5823 39.1116 43.9672C38.2119 44.2896 37.4632 43.894 37.2962 42.9362C37.0967 41.7928 37.4237 40.4881 37.7149 39.3874C36.8453 38.5608 35.9426 37.7224 35.2978 36.7102C34.678 35.7369 35.1414 34.8258 36.2313 34.5763C36.5833 34.4956 36.944 34.4557 37.3044 34.4382C37.7896 34.4147 38.7824 34.453 39.2527 34.453C39.2855 34.4341 39.3555 34.1454 39.3731 34.0963C39.4921 33.7625 39.6171 33.4333 39.7558 33.1071C39.8607 32.861 39.9676 32.6156 40.0771 32.3717C40.467 31.5034 41.3333 29.1672 42.6373 30.0572C42.7699 30.1477 42.8814 30.2616 42.9825 30.3852C43.1498 30.5895 43.281 30.8305 43.4013 31.0646C43.6276 31.5039 43.8044 31.9659 43.9842 32.4256C44.2526 33.1118 44.4776 33.8215 44.775 34.4963C44.7787 34.5046 44.7814 34.5134 44.7835 34.5221C45.2257 34.533 45.669 34.5408 46.1108 34.5628C47.0745 34.6107 48.5813 34.36 49.0041 35.3208C49.2327 35.8404 48.9798 36.3901 48.6694 36.8113C48.0387 37.6673 47.1857 38.3277 46.3588 38.9814" fill="#FF6C0A"/>
<path d="M43.5786 31.4651C43.9144 31.1335 44.279 30.8155 44.6407 30.5127" stroke="white" stroke-width="0.88" stroke-miterlimit="1.5" stroke-linecap="round" stroke-linejoin="round"/>
<path d="M44.2896 33.2156C44.7502 32.7781 45.2053 32.3395 45.6742 31.9111" stroke="white" stroke-width="0.88" stroke-miterlimit="1.5" stroke-linecap="round" stroke-linejoin="round"/>
<path d="M46.0845 34.551C46.4473 34.1252 46.8135 33.6989 47.2042 33.2979" stroke="white" stroke-width="0.88" stroke-miterlimit="1.5" stroke-linecap="round" stroke-linejoin="round"/>
<path d="M48.7095 34.9051C48.9706 34.6758 49.2256 34.4386 49.4747 34.1963" stroke="white" stroke-width="0.88" stroke-miterlimit="1.5" stroke-linecap="round" stroke-linejoin="round"/>
<path d="M46.5747 40.1714C46.804 39.957 47.0338 39.7439 47.2767 39.5449" stroke="white" stroke-width="0.88" stroke-miterlimit="1.5" stroke-linecap="round" stroke-linejoin="round"/>
<path d="M47.0454 42.6389C47.2989 42.4102 47.5517 42.1778 47.8188 41.9648" stroke="white" stroke-width="0.88" stroke-miterlimit="1.5" stroke-linecap="round" stroke-linejoin="round"/>
<path d="M43.1308 42.7891C42.7782 43.205 42.3727 43.5462 41.9478 43.8843" stroke="white" stroke-width="0.88" stroke-miterlimit="1.5" stroke-linecap="round" stroke-linejoin="round"/>
<path fill-rule="evenodd" clip-rule="evenodd" d="M65.6454 39.282C65.9672 40.3746 66.6346 41.8484 66.3518 42.9748C65.9006 44.7728 63.6333 43.6513 62.757 42.9952C62.5244 42.821 62.2935 42.6439 62.0712 42.4568C61.8065 42.2343 61.5454 42.0068 61.2935 41.7699C60.5706 42.634 59.5451 43.5823 58.4714 43.9672C57.5718 44.2896 56.8231 43.894 56.6561 42.9362C56.4565 41.7928 56.7836 40.4881 57.0748 39.3874C56.2052 38.5608 55.3025 37.7224 54.6577 36.7102C54.0379 35.7369 54.5012 34.8258 55.5911 34.5763C55.9432 34.4956 56.3039 34.4557 56.6642 34.4382C57.1495 34.4147 58.1423 34.453 58.6125 34.453C58.6453 34.4341 58.7154 34.1454 58.733 34.0963C58.852 33.7625 58.9769 33.4333 59.1157 33.1071C59.2206 32.861 59.3274 32.6156 59.437 32.3717C59.8269 31.5034 60.6932 29.1672 61.9972 30.0572C62.1298 30.1477 62.2413 30.2616 62.3424 30.3852C62.5097 30.5895 62.6409 30.8305 62.7612 31.0646C62.9875 31.5039 63.1643 31.9659 63.344 32.4256C63.6124 33.1118 63.8375 33.8215 64.1348 34.4963C64.1385 34.5046 64.1413 34.5134 64.1434 34.5221C64.5856 34.533 65.0289 34.5408 65.4706 34.5628C66.4343 34.6107 67.9412 34.36 68.364 35.3208C68.5926 35.8404 68.3396 36.3901 68.0292 36.8113C67.3986 37.6673 66.5456 38.3277 65.7187 38.9814" fill="#FF6C0A"/>
<path d="M62.9385 31.4651C63.2743 31.1335 63.6389 30.8155 64.0006 30.5127" stroke="white" stroke-width="0.88" stroke-miterlimit="1.5" stroke-linecap="round" stroke-linejoin="round"/>
<path d="M63.6494 33.2156C64.1101 32.7781 64.5652 32.3395 65.0341 31.9111" stroke="white" stroke-width="0.88" stroke-miterlimit="1.5" stroke-linecap="round" stroke-linejoin="round"/>
<path d="M65.4443 34.551C65.8072 34.1252 66.1734 33.6989 66.5641 33.2979" stroke="white" stroke-width="0.88" stroke-miterlimit="1.5" stroke-linecap="round" stroke-linejoin="round"/>
<path d="M68.0693 34.9051C68.3305 34.6758 68.5854 34.4386 68.8346 34.1963" stroke="white" stroke-width="0.88" stroke-miterlimit="1.5" stroke-linecap="round" stroke-linejoin="round"/>
<path d="M65.9346 40.1714C66.1639 39.957 66.3936 39.7439 66.6366 39.5449" stroke="white" stroke-width="0.88" stroke-miterlimit="1.5" stroke-linecap="round" stroke-linejoin="round"/>
<path d="M66.4053 42.6389C66.6588 42.4102 66.9116 42.1778 67.1787 41.9648" stroke="white" stroke-width="0.88" stroke-miterlimit="1.5" stroke-linecap="round" stroke-linejoin="round"/>
<path d="M62.4907 42.7891C62.1381 43.205 61.7325 43.5462 61.3076 43.8843" stroke="white" stroke-width="0.88" stroke-miterlimit="1.5" stroke-linecap="round" stroke-linejoin="round"/>
<path fill-rule="evenodd" clip-rule="evenodd" d="M85.0057 39.282C85.3276 40.3746 85.9949 41.8484 85.7122 42.9748C85.261 44.7728 82.9937 43.6513 82.1174 42.9952C81.8848 42.821 81.6539 42.6439 81.4316 42.4568C81.1669 42.2343 80.9058 42.0068 80.6538 41.7699C79.9309 42.634 78.9055 43.5823 77.8318 43.9672C76.9321 44.2896 76.1834 43.894 76.0164 42.9362C75.8169 41.7928 76.1439 40.4881 76.4351 39.3874C75.5655 38.5608 74.6629 37.7224 74.018 36.7102C73.3982 35.7369 73.8616 34.8258 74.9515 34.5763C75.3035 34.4956 75.6642 34.4557 76.0246 34.4382C76.5098 34.4147 77.5027 34.453 77.9729 34.453C78.0057 34.4341 78.0757 34.1454 78.0933 34.0963C78.2124 33.7625 78.3373 33.4333 78.4761 33.1071C78.5809 32.861 78.6878 32.6156 78.7973 32.3717C79.1872 31.5034 80.0535 29.1672 81.3575 30.0572C81.4902 30.1477 81.6016 30.2616 81.7027 30.3852C81.87 30.5895 82.0012 30.8305 82.1215 31.0646C82.3479 31.5039 82.5246 31.9659 82.7044 32.4256C82.9728 33.1118 83.1978 33.8215 83.4952 34.4963C83.4989 34.5046 83.5016 34.5134 83.5038 34.5221C83.9459 34.533 84.3892 34.5408 84.831 34.5628C85.7947 34.6107 87.3015 34.36 87.7243 35.3208C87.9529 35.8404 87.7 36.3901 87.3896 36.8113C86.7589 37.6673 85.906 38.3277 85.0791 38.9814" fill="#FF6C0A"/>
<path d="M82.2988 31.4651C82.6346 31.1335 82.9992 30.8155 83.3609 30.5127" stroke="white" stroke-width="0.88" stroke-miterlimit="1.5" stroke-linecap="round" stroke-linejoin="round"/>
<path d="M83.0098 33.2156C83.4705 32.7781 83.9255 32.3395 84.3944 31.9111" stroke="white" stroke-width="0.88" stroke-miterlimit="1.5" stroke-linecap="round" stroke-linejoin="round"/>
<path d="M84.8047 34.551C85.1675 34.1252 85.5337 33.6989 85.9244 33.2979" stroke="white" stroke-width="0.88" stroke-miterlimit="1.5" stroke-linecap="round" stroke-linejoin="round"/>
<path d="M87.4297 34.9051C87.6908 34.6758 87.9458 34.4386 88.1949 34.1963" stroke="white" stroke-width="0.88" stroke-miterlimit="1.5" stroke-linecap="round" stroke-linejoin="round"/>
<path d="M85.2949 40.1714C85.5242 39.957 85.754 39.7439 85.9969 39.5449" stroke="white" stroke-width="0.88" stroke-miterlimit="1.5" stroke-linecap="round" stroke-linejoin="round"/>
<path d="M85.7656 42.6389C86.0191 42.4102 86.2719 42.1778 86.539 41.9648" stroke="white" stroke-width="0.88" stroke-miterlimit="1.5" stroke-linecap="round" stroke-linejoin="round"/>
<path d="M81.851 42.7891C81.4984 43.205 81.0929 43.5462 80.668 43.8843" stroke="white" stroke-width="0.88" stroke-miterlimit="1.5" stroke-linecap="round" stroke-linejoin="round"/>
<path fill-rule="evenodd" clip-rule="evenodd" d="M104.366 39.282C104.687 40.3746 105.355 41.8484 105.072 42.9748C104.621 44.7728 102.354 43.6513 101.477 42.9952C101.245 42.821 101.014 42.6439 100.791 42.4568C100.527 42.2343 100.266 42.0068 100.014 41.7699C99.2908 42.634 98.2653 43.5823 97.1917 43.9672C96.292 44.2896 95.5433 43.894 95.3763 42.9362C95.1768 41.7928 95.5038 40.4881 95.795 39.3874C94.9254 38.5608 94.0227 37.7224 93.3779 36.7102C92.7581 35.7369 93.2215 34.8258 94.3113 34.5763C94.6634 34.4956 95.0241 34.4557 95.3845 34.4382C95.8697 34.4147 96.8625 34.453 97.3327 34.453C97.3655 34.4341 97.4356 34.1454 97.4532 34.0963C97.5722 33.7625 97.6971 33.4333 97.8359 33.1071C97.9408 32.861 98.0476 32.6156 98.1572 32.3717C98.5471 31.5034 99.4134 29.1672 100.717 30.0572C100.85 30.1477 100.961 30.2616 101.063 30.3852C101.23 30.5895 101.361 30.8305 101.481 31.0646C101.708 31.5039 101.884 31.9659 102.064 32.4256C102.333 33.1118 102.558 33.8215 102.855 34.4963C102.859 34.5046 102.861 34.5134 102.864 34.5221C103.306 34.533 103.749 34.5408 104.191 34.5628C105.155 34.6107 106.661 34.36 107.084 35.3208C107.313 35.8404 107.06 36.3901 106.749 36.8113C106.119 37.6673 105.266 38.3277 104.439 38.9814" fill="#FF6C0A"/>
<path d="M101.659 31.4651C101.994 31.1335 102.359 30.8155 102.721 30.5127" stroke="white" stroke-width="0.88" stroke-miterlimit="1.5" stroke-linecap="round" stroke-linejoin="round"/>
<path d="M102.37 33.2156C102.83 32.7781 103.285 32.3395 103.754 31.9111" stroke="white" stroke-width="0.88" stroke-miterlimit="1.5" stroke-linecap="round" stroke-linejoin="round"/>
<path d="M104.165 34.551C104.527 34.1252 104.894 33.6989 105.284 33.2979" stroke="white" stroke-width="0.88" stroke-miterlimit="1.5" stroke-linecap="round" stroke-linejoin="round"/>
<path d="M106.79 34.9051C107.051 34.6758 107.306 34.4386 107.555 34.1963" stroke="white" stroke-width="0.88" stroke-miterlimit="1.5" stroke-linecap="round" stroke-linejoin="round"/>
<path d="M104.655 40.1714C104.884 39.957 105.114 39.7439 105.357 39.5449" stroke="white" stroke-width="0.88" stroke-miterlimit="1.5" stroke-linecap="round" stroke-linejoin="round"/>
<path d="M105.125 42.6389C105.379 42.4102 105.632 42.1778 105.899 41.9648" stroke="white" stroke-width="0.88" stroke-miterlimit="1.5" stroke-linecap="round" stroke-linejoin="round"/>
<path d="M101.211 42.7891C100.858 43.205 100.453 43.5462 100.028 43.8843" stroke="white" stroke-width="0.88" stroke-miterlimit="1.5" stroke-linecap="round" stroke-linejoin="round"/>
<path fill-rule="evenodd" clip-rule="evenodd" d="M123.725 39.282C124.047 40.3746 124.715 41.8484 124.432 42.9748C123.981 44.7728 121.713 43.6513 120.837 42.9952C120.604 42.821 120.374 42.6439 120.151 42.4568C119.887 42.2343 119.625 42.0068 119.374 41.7699C118.651 42.634 117.625 43.5823 116.552 43.9672C115.652 44.2896 114.903 43.894 114.736 42.9362C114.537 41.7928 114.864 40.4881 115.155 39.3874C114.285 38.5608 113.383 37.7224 112.738 36.7102C112.118 35.7369 112.581 34.8258 113.671 34.5763C114.023 34.4956 114.384 34.4557 114.744 34.4382C115.23 34.4147 116.222 34.453 116.693 34.453C116.725 34.4341 116.795 34.1454 116.813 34.0963C116.932 33.7625 117.057 33.4333 117.196 33.1071C117.301 32.861 117.407 32.6156 117.517 32.3717C117.907 31.5034 118.773 29.1672 120.077 30.0572C120.21 30.1477 120.321 30.2616 120.422 30.3852C120.59 30.5895 120.721 30.8305 120.841 31.0646C121.068 31.5039 121.244 31.9659 121.424 32.4256C121.693 33.1118 121.918 33.8215 122.215 34.4963C122.219 34.5046 122.221 34.5134 122.223 34.5221C122.666 34.533 123.109 34.5408 123.551 34.5628C124.514 34.6107 126.021 34.36 126.444 35.3208C126.673 35.8404 126.42 36.3901 126.109 36.8113C125.479 37.6673 124.626 38.3277 123.799 38.9814" fill="#FF6C0A"/>
<path d="M121.019 31.4651C121.354 31.1335 121.719 30.8155 122.081 30.5127" stroke="white" stroke-width="0.88" stroke-miterlimit="1.5" stroke-linecap="round" stroke-linejoin="round"/>
<path d="M121.729 33.2156C122.19 32.7781 122.645 32.3395 123.114 31.9111" stroke="white" stroke-width="0.88" stroke-miterlimit="1.5" stroke-linecap="round" stroke-linejoin="round"/>
<path d="M123.524 34.551C123.887 34.1252 124.253 33.6989 124.644 33.2979" stroke="white" stroke-width="0.88" stroke-miterlimit="1.5" stroke-linecap="round" stroke-linejoin="round"/>
<path d="M126.149 34.9051C126.411 34.6758 126.666 34.4386 126.915 34.1963" stroke="white" stroke-width="0.88" stroke-miterlimit="1.5" stroke-linecap="round" stroke-linejoin="round"/>
<path d="M124.015 40.1714C124.244 39.957 124.474 39.7439 124.717 39.5449" stroke="white" stroke-width="0.88" stroke-miterlimit="1.5" stroke-linecap="round" stroke-linejoin="round"/>
<path d="M124.485 42.6389C124.739 42.4102 124.992 42.1778 125.259 41.9648" stroke="white" stroke-width="0.88" stroke-miterlimit="1.5" stroke-linecap="round" stroke-linejoin="round"/>
<path d="M120.571 42.7891C120.218 43.205 119.813 43.5462 119.388 43.8843" stroke="white" stroke-width="0.88" stroke-miterlimit="1.5" stroke-linecap="round" stroke-linejoin="round"/>
<path d="M36.2309 55.4587C36.2309 55.1302 36.2121 54.8674 36.1746 54.6702C36.1464 54.4637 36.0807 54.3042 35.9775 54.1915C35.8836 54.0695 35.7428 53.9897 35.5551 53.9522C35.3673 53.9052 35.1233 53.8724 34.8229 53.8536V53.3186H39.1032V53.8536C38.8029 53.863 38.5588 53.8911 38.3711 53.9381C38.1927 53.985 38.0519 54.0695 37.9487 54.1915C37.8548 54.3135 37.7891 54.4825 37.7516 54.6984C37.7234 54.9143 37.7093 55.2006 37.7093 55.5573V64.1883C37.7093 65.371 37.4606 66.2722 36.9631 66.8917C36.4656 67.5112 35.7381 67.821 34.7807 67.821C34.133 67.821 33.6167 67.6942 33.2319 67.4408C32.8376 67.1967 32.6405 66.8682 32.6405 66.4552C32.6405 66.2111 32.7062 66.0234 32.8376 65.892C32.9597 65.77 33.1333 65.709 33.3586 65.709C33.5369 65.709 33.6824 65.7512 33.7951 65.8357C33.8983 65.9295 34.0204 66.1079 34.1612 66.3707C34.3207 66.6711 34.4568 66.8729 34.5695 66.9762C34.6915 67.0888 34.8464 67.1451 35.0341 67.1451C35.419 67.1451 35.7146 66.9386 35.9212 66.5256C36.1277 66.1126 36.2309 65.5259 36.2309 64.7656V55.4587ZM46.7228 62.8507C45.925 63.8175 44.9347 64.301 43.7519 64.301C43.1981 64.301 42.6959 64.2118 42.2454 64.0334C41.7948 63.8457 41.4053 63.5876 41.0767 63.259C40.7576 62.9211 40.5089 62.5222 40.3305 62.0622C40.1522 61.5929 40.063 61.0766 40.063 60.5134C40.063 59.9408 40.1569 59.4105 40.3446 58.9224C40.5323 58.4343 40.7951 58.0166 41.1331 57.6693C41.4804 57.322 41.8887 57.0498 42.358 56.8526C42.8367 56.6555 43.3577 56.557 43.9209 56.557C44.8314 56.557 45.5354 56.8057 46.0329 57.3032C46.5304 57.7913 46.7791 58.4953 46.7791 59.4152C46.7791 59.5466 46.751 59.6264 46.6947 59.6546C46.6477 59.6827 46.5304 59.6968 46.3427 59.6968H41.7103C41.6916 59.7719 41.6775 59.8658 41.6681 59.9784C41.6587 60.0816 41.654 60.199 41.654 60.3304C41.654 60.8185 41.7103 61.2644 41.823 61.668C41.945 62.0622 42.114 62.4002 42.3299 62.6818C42.5551 62.9634 42.818 63.1839 43.1183 63.3435C43.4281 63.4937 43.7707 63.5688 44.1462 63.5688C44.5404 63.5688 44.9065 63.4843 45.2444 63.3154C45.5823 63.137 45.9297 62.8507 46.2863 62.4565L46.7228 62.8507ZM44.3996 59.0491C44.5874 59.0491 44.7375 59.0444 44.8502 59.035C44.9628 59.0256 45.0473 59.0069 45.1036 58.9787C45.1599 58.9506 45.1975 58.913 45.2163 58.8661C45.235 58.8098 45.2444 58.7394 45.2444 58.6549C45.2444 58.2231 45.1036 57.8805 44.822 57.627C44.5498 57.3642 44.1743 57.2328 43.6956 57.2328C42.6819 57.2328 42.053 57.8382 41.8089 59.0491H44.3996ZM48.6552 64.1602H48.3454V61.7384H48.6974C49.0635 63.0619 49.73 63.7237 50.6968 63.7237C51.0723 63.7237 51.3679 63.6345 51.5838 63.4562C51.8091 63.2684 51.9218 62.9868 51.9218 62.6114C51.9218 62.4706 51.8983 62.3532 51.8514 62.2594C51.8138 62.1561 51.734 62.0528 51.612 61.9496C51.4994 61.837 51.3351 61.7102 51.1192 61.5694C50.9127 61.4286 50.6358 61.2503 50.2885 61.0344C49.9693 60.8373 49.6924 60.6542 49.4578 60.4853C49.2231 60.3163 49.026 60.1474 48.8664 59.9784C48.7068 59.8 48.5848 59.6123 48.5003 59.4152C48.4252 59.2181 48.3877 58.9881 48.3877 58.7253C48.3877 58.4061 48.4393 58.1151 48.5426 57.8523C48.6552 57.5801 48.8054 57.3501 48.9931 57.1624C49.1808 56.9747 49.4014 56.8292 49.6549 56.7259C49.9083 56.6133 50.1852 56.557 50.4856 56.557C50.739 56.557 51.0019 56.5992 51.2741 56.6837C51.5463 56.7588 51.7856 56.862 51.9922 56.9934L52.2738 56.6978H52.5413V58.7253H52.1752C51.9687 58.1527 51.7434 57.7444 51.4994 57.5003C51.2553 57.2563 50.9549 57.1342 50.5982 57.1342C50.2791 57.1342 50.021 57.2187 49.8238 57.3877C49.6361 57.5566 49.5422 57.7913 49.5422 58.0917C49.5422 58.2512 49.5657 58.392 49.6126 58.5141C49.669 58.6267 49.7534 58.7394 49.8661 58.852C49.9787 58.9646 50.1195 59.082 50.2885 59.204C50.4668 59.3166 50.678 59.448 50.9221 59.5982C51.3257 59.8517 51.6683 60.077 51.9499 60.2741C52.2409 60.4712 52.4756 60.6683 52.6539 60.8654C52.8323 61.0532 52.9637 61.2503 53.0482 61.4568C53.1326 61.6633 53.1749 61.898 53.1749 62.1608C53.1749 62.8272 52.959 63.3529 52.5272 63.7378C52.0954 64.1132 51.5275 64.301 50.8235 64.301C50.0914 64.301 49.4624 64.0898 48.9368 63.6674L48.6552 64.1602ZM55.0489 64.1602H54.7392V61.7384H55.0912C55.4573 63.0619 56.1237 63.7237 57.0905 63.7237C57.466 63.7237 57.7617 63.6345 57.9776 63.4562C58.2029 63.2684 58.3155 62.9868 58.3155 62.6114C58.3155 62.4706 58.292 62.3532 58.2451 62.2594C58.2076 62.1561 58.1278 62.0528 58.0057 61.9496C57.8931 61.837 57.7288 61.7102 57.5129 61.5694C57.3064 61.4286 57.0295 61.2503 56.6822 61.0344C56.3631 60.8373 56.0862 60.6542 55.8515 60.4853C55.6168 60.3163 55.4197 60.1474 55.2601 59.9784C55.1006 59.8 54.9785 59.6123 54.8941 59.4152C54.819 59.2181 54.7814 58.9881 54.7814 58.7253C54.7814 58.4061 54.8331 58.1151 54.9363 57.8523C55.0489 57.5801 55.1991 57.3501 55.3869 57.1624C55.5746 56.9747 55.7952 56.8292 56.0486 56.7259C56.3021 56.6133 56.579 56.557 56.8793 56.557C57.1328 56.557 57.3956 56.5992 57.6678 56.6837C57.94 56.7588 58.1794 56.862 58.3859 56.9934L58.6675 56.6978H58.935V58.7253H58.5689C58.3624 58.1527 58.1372 57.7444 57.8931 57.5003C57.6491 57.2563 57.3487 57.1342 56.992 57.1342C56.6728 57.1342 56.4147 57.2187 56.2176 57.3877C56.0299 57.5566 55.936 57.7913 55.936 58.0917C55.936 58.2512 55.9595 58.392 56.0064 58.5141C56.0627 58.6267 56.1472 58.7394 56.2598 58.852C56.3725 58.9646 56.5133 59.082 56.6822 59.204C56.8606 59.3166 57.0718 59.448 57.3158 59.5982C57.7195 59.8517 58.0621 60.077 58.3437 60.2741C58.6347 60.4712 58.8693 60.6683 59.0477 60.8654C59.226 61.0532 59.3574 61.2503 59.4419 61.4568C59.5264 61.6633 59.5686 61.898 59.5686 62.1608C59.5686 62.8272 59.3527 63.3529 58.9209 63.7378C58.4892 64.1132 57.9213 64.301 57.2173 64.301C56.4851 64.301 55.8562 64.0898 55.3305 63.6674L55.0489 64.1602ZM63.4421 61.9214C63.4421 62.2875 63.4561 62.5832 63.4843 62.8085C63.5218 63.0244 63.5875 63.198 63.6814 63.3294C63.7753 63.4515 63.9067 63.5359 64.0757 63.5829C64.2446 63.6298 64.4699 63.658 64.7515 63.6674V64.1602H60.7105V63.6674C60.9921 63.658 61.2221 63.6298 61.4005 63.5829C61.5788 63.5266 61.7149 63.4421 61.8088 63.3294C61.912 63.2074 61.9777 63.0431 62.0059 62.8366C62.0434 62.6207 62.0622 62.3485 62.0622 62.02V60.2178C62.0622 59.6733 62.0528 59.2275 62.0341 58.8802C62.0247 58.5235 62.0012 58.2794 61.9637 58.148C61.9167 57.9321 61.8088 57.7866 61.6398 57.7115C61.4709 57.627 61.1517 57.5848 60.6824 57.5848V57.092L63.4421 56.557V61.9214ZM61.8229 53.6987C61.8229 53.4547 61.9073 53.2482 62.0763 53.0792C62.2453 52.9102 62.4518 52.8258 62.6958 52.8258C62.9399 52.8258 63.1464 52.9102 63.3153 53.0792C63.4843 53.2482 63.5688 53.4547 63.5688 53.6987C63.5688 53.9428 63.4843 54.1493 63.3153 54.3182C63.1464 54.4872 62.9399 54.5717 62.6958 54.5717C62.4518 54.5717 62.2453 54.4872 62.0763 54.3182C61.9073 54.1493 61.8229 53.9428 61.8229 53.6987ZM72.3803 62.8507C71.5825 63.8175 70.5922 64.301 69.4094 64.301C68.8556 64.301 68.3534 64.2118 67.9029 64.0334C67.4523 63.8457 67.0628 63.5876 66.7342 63.259C66.4151 62.9211 66.1664 62.5222 65.988 62.0622C65.8097 61.5929 65.7205 61.0766 65.7205 60.5134C65.7205 59.9408 65.8144 59.4105 66.0021 58.9224C66.1898 58.4343 66.4526 58.0166 66.7906 57.6693C67.1379 57.322 67.5462 57.0498 68.0155 56.8526C68.4942 56.6555 69.0152 56.557 69.5784 56.557C70.4889 56.557 71.1929 56.8057 71.6904 57.3032C72.1879 57.7913 72.4366 58.4953 72.4366 59.4152C72.4366 59.5466 72.4085 59.6264 72.3522 59.6546C72.3052 59.6827 72.1879 59.6968 72.0002 59.6968H67.3678C67.3491 59.7719 67.335 59.8658 67.3256 59.9784C67.3162 60.0816 67.3115 60.199 67.3115 60.3304C67.3115 60.8185 67.3678 61.2644 67.4805 61.668C67.6025 62.0622 67.7715 62.4002 67.9874 62.6818C68.2126 62.9634 68.4755 63.1839 68.7758 63.3435C69.0856 63.4937 69.4282 63.5688 69.8037 63.5688C70.1979 63.5688 70.564 63.4843 70.9019 63.3154C71.2398 63.137 71.5872 62.8507 71.9438 62.4565L72.3803 62.8507ZM70.0571 59.0491C70.2449 59.0491 70.395 59.0444 70.5077 59.035C70.6203 59.0256 70.7048 59.0069 70.7611 58.9787C70.8174 58.9506 70.855 58.913 70.8738 58.8661C70.8925 58.8098 70.9019 58.7394 70.9019 58.6549C70.9019 58.2231 70.7611 57.8805 70.4795 57.627C70.2073 57.3642 69.8318 57.2328 69.3531 57.2328C68.3394 57.2328 67.7105 57.8382 67.4664 59.0491H70.0571ZM80.2263 62.9915C79.8884 63.4045 79.4519 63.7284 78.9169 63.963C78.3818 64.1883 77.8045 64.301 77.185 64.301C76.6875 64.301 76.2276 64.2118 75.8052 64.0334C75.3922 63.8457 75.0355 63.5876 74.7351 63.259C74.4347 62.9211 74.2001 62.5175 74.0311 62.0482C73.8715 61.5788 73.7917 61.0579 73.7917 60.4853C73.7917 59.8845 73.8856 59.3448 74.0733 58.8661C74.2611 58.378 74.5239 57.965 74.8618 57.627C75.2091 57.2797 75.6221 57.0169 76.1009 56.8386C76.589 56.6508 77.124 56.557 77.706 56.557C78.0721 56.557 78.4053 56.5898 78.7057 56.6555C79.006 56.7118 79.2642 56.7963 79.4801 56.909C79.7053 57.0122 79.879 57.1436 80.001 57.3032C80.123 57.4534 80.1841 57.6176 80.1841 57.796C80.1841 57.9837 80.123 58.1292 80.001 58.2325C79.879 58.3357 79.71 58.3874 79.4941 58.3874C79.3252 58.3874 79.1844 58.3545 79.0717 58.2888C78.9591 58.2137 78.8136 58.0541 78.6353 57.8101C78.4475 57.5942 78.2645 57.444 78.0861 57.3595C77.9172 57.2656 77.6966 57.2187 77.4244 57.2187C76.7579 57.2187 76.251 57.4768 75.9037 57.9931C75.5658 58.5094 75.3969 59.2697 75.3969 60.2741C75.3969 61.3535 75.5846 62.1749 75.9601 62.7381C76.3449 63.2919 76.9034 63.5688 77.6356 63.5688C78.0298 63.5688 78.4006 63.4937 78.7479 63.3435C79.0952 63.1839 79.4472 62.9305 79.8039 62.5832L80.2263 62.9915ZM85.5645 59.9925C85.0294 60.199 84.5742 60.4008 84.1987 60.5979C83.8326 60.795 83.537 60.9922 83.3117 61.1893C83.0864 61.3864 82.9221 61.5835 82.8189 61.7806C82.725 61.9778 82.6781 62.1796 82.6781 62.3861C82.6781 62.6958 82.7813 62.9493 82.9878 63.1464C83.1944 63.3435 83.4666 63.4421 83.8045 63.4421C84.0485 63.4421 84.2738 63.3811 84.4803 63.259C84.6962 63.137 84.884 62.9727 85.0435 62.7662C85.2031 62.5503 85.3298 62.3016 85.4237 62.02C85.5176 61.729 85.5645 61.4239 85.5645 61.1048V59.9925ZM85.5645 59.387V58.8098C85.5645 57.6646 85.0764 57.092 84.1002 57.092C83.9406 57.092 83.8045 57.1061 83.6918 57.1342C83.5792 57.1624 83.4853 57.2093 83.4102 57.275C83.3352 57.3407 83.2648 57.4346 83.199 57.5566C83.1427 57.6787 83.0864 57.8288 83.0301 58.0072C82.9268 58.2794 82.8236 58.4624 82.7203 58.5563C82.6265 58.6408 82.4857 58.683 82.2979 58.683C81.8286 58.683 81.5939 58.4484 81.5939 57.979C81.5939 57.5285 81.8333 57.1812 82.312 56.9371C82.7907 56.6837 83.4713 56.557 84.3536 56.557C85.2923 56.557 85.9587 56.7259 86.353 57.0638C86.7472 57.3924 86.9443 57.9556 86.9443 58.7534V61.9074C86.9443 62.9774 87.1555 63.5125 87.5779 63.5125C87.7093 63.5125 87.8361 63.4984 87.9581 63.4702C88.0801 63.4327 88.1834 63.3435 88.2678 63.2027L88.465 63.5406C88.3523 63.7565 88.1458 63.9396 87.8454 64.0898C87.5451 64.2306 87.2306 64.301 86.9021 64.301C86.4891 64.301 86.1793 64.1695 85.9728 63.9067C85.7757 63.6439 85.6771 63.2731 85.6771 62.7944H85.6067C85.3627 63.2543 85.0248 63.6204 84.593 63.8926C84.1612 64.1555 83.6825 64.2869 83.1568 64.2869C82.5654 64.2869 82.1008 64.1367 81.7629 63.8363C81.425 63.5359 81.256 63.1323 81.256 62.6254C81.256 62.4002 81.2936 62.1843 81.3686 61.9778C81.4531 61.7712 81.5845 61.5741 81.7629 61.3864C81.9412 61.1987 82.1759 61.0156 82.4669 60.8373C82.7579 60.6495 83.1146 60.4618 83.537 60.2741L85.5645 59.387ZM103.18 61.9214C103.18 62.2781 103.198 62.5691 103.236 62.7944C103.274 63.0103 103.344 63.1792 103.447 63.3013C103.56 63.4139 103.715 63.4937 103.912 63.5406C104.118 63.5876 104.386 63.6157 104.714 63.6251V64.1602H100.152V63.6251C100.481 63.6157 100.744 63.5876 100.941 63.5406C101.147 63.4937 101.307 63.4139 101.42 63.3013C101.532 63.1886 101.607 63.0291 101.645 62.8226C101.682 62.616 101.701 62.3485 101.701 62.02V58.9646H95.9989V61.9214C95.9989 62.2781 96.0176 62.5691 96.0552 62.7944C96.0927 63.0103 96.1631 63.1792 96.2664 63.3013C96.379 63.4139 96.5339 63.4937 96.731 63.5406C96.9375 63.5876 97.2051 63.6157 97.5336 63.6251V64.1602H92.9717V63.6251C93.3002 63.6157 93.563 63.5876 93.7601 63.5406C93.9667 63.4937 94.1262 63.4139 94.2389 63.3013C94.3515 63.1886 94.4266 63.0291 94.4641 62.8226C94.5017 62.616 94.5205 62.3485 94.5205 62.02V55.4587C94.5205 55.1302 94.5017 54.8674 94.4641 54.6702C94.436 54.4637 94.3703 54.3042 94.267 54.1915C94.1732 54.0695 94.0324 53.9897 93.8446 53.9522C93.6569 53.9052 93.4128 53.8724 93.1125 53.8536V53.3186H97.3928V53.8536C97.0924 53.863 96.8484 53.8911 96.6606 53.9381C96.4823 53.985 96.3415 54.0695 96.2382 54.1915C96.1444 54.3135 96.0787 54.4825 96.0411 54.6984C96.0129 54.9143 95.9989 55.2006 95.9989 55.5573V58.2606H101.701V55.4587C101.701 55.1302 101.682 54.8674 101.645 54.6702C101.617 54.4637 101.551 54.3042 101.448 54.1915C101.354 54.0695 101.213 53.9897 101.025 53.9522C100.838 53.9052 100.594 53.8724 100.293 53.8536V53.3186H104.574V53.8536C104.273 53.863 104.029 53.8911 103.841 53.9381C103.663 53.985 103.522 54.0695 103.419 54.1915C103.325 54.3135 103.259 54.4825 103.222 54.6984C103.194 54.9143 103.18 55.2006 103.18 55.5573V61.9214ZM108.57 61.9214C108.57 62.2875 108.584 62.5832 108.612 62.8085C108.649 63.0244 108.715 63.198 108.809 63.3294C108.903 63.4515 109.034 63.5359 109.203 63.5829C109.372 63.6298 109.597 63.658 109.879 63.6674V64.1602H105.838V63.6674C106.12 63.658 106.35 63.6298 106.528 63.5829C106.706 63.5266 106.842 63.4421 106.936 63.3294C107.04 63.2074 107.105 63.0431 107.133 62.8366C107.171 62.6207 107.19 62.3485 107.19 62.02V60.2178C107.19 59.6733 107.18 59.2275 107.162 58.8802C107.152 58.5235 107.129 58.2794 107.091 58.148C107.044 57.9321 106.936 57.7866 106.767 57.7115C106.598 57.627 106.279 57.5848 105.81 57.5848V57.092L108.57 56.557V61.9214ZM106.95 53.6987C106.95 53.4547 107.035 53.2482 107.204 53.0792C107.373 52.9102 107.579 52.8258 107.823 52.8258C108.067 52.8258 108.274 52.9102 108.443 53.0792C108.612 53.2482 108.696 53.4547 108.696 53.6987C108.696 53.9428 108.612 54.1493 108.443 54.3182C108.274 54.4872 108.067 54.5717 107.823 54.5717C107.579 54.5717 107.373 54.4872 107.204 54.3182C107.035 54.1493 106.95 53.9428 106.95 53.6987ZM116.973 62.9774H116.916C116.579 63.4562 116.217 63.7988 115.832 64.0053C115.457 64.2024 115.011 64.301 114.495 64.301C113.96 64.301 113.467 64.2071 113.016 64.0194C112.575 63.8222 112.19 63.5547 111.862 63.2168C111.543 62.8695 111.289 62.4565 111.101 61.9778C110.923 61.499 110.834 60.9781 110.834 60.4149C110.834 59.8611 110.923 59.3495 111.101 58.8802C111.289 58.4014 111.543 57.9931 111.862 57.6552C112.19 57.3079 112.58 57.0404 113.03 56.8526C113.481 56.6555 113.969 56.557 114.495 56.557C114.945 56.557 115.344 56.632 115.692 56.7822C116.048 56.9324 116.391 57.1718 116.719 57.5003V56.0642C116.719 55.5291 116.71 55.0832 116.691 54.7266C116.682 54.3699 116.663 54.1258 116.635 53.9944C116.588 53.7879 116.457 53.6424 116.241 53.5579C116.025 53.4734 115.673 53.4312 115.185 53.4312V53.0088L118.071 52.4738V60.5979C118.071 61.2456 118.076 61.7806 118.085 62.203C118.094 62.616 118.123 62.9117 118.17 63.0901C118.198 63.2027 118.231 63.2966 118.268 63.3717C118.315 63.4468 118.376 63.5078 118.451 63.5547C118.536 63.5923 118.644 63.6204 118.775 63.6392C118.916 63.658 119.094 63.6674 119.31 63.6674V64.1461L116.973 64.301V62.9774ZM116.691 59.8658C116.691 59.3776 116.663 59.0069 116.607 58.7534C116.56 58.5 116.461 58.2794 116.311 58.0917C116.095 57.8101 115.818 57.5989 115.48 57.4581C115.152 57.3079 114.823 57.2328 114.495 57.2328C113.819 57.2328 113.303 57.5144 112.946 58.0776C112.599 58.6314 112.425 59.387 112.425 60.3445C112.425 60.842 112.467 61.2925 112.552 61.6962C112.646 62.0998 112.777 62.4471 112.946 62.7381C113.124 63.0197 113.34 63.2403 113.594 63.3998C113.856 63.55 114.157 63.6251 114.495 63.6251C114.664 63.6251 114.833 63.6063 115.002 63.5688C115.18 63.5312 115.349 63.4749 115.508 63.3998C115.677 63.3154 115.832 63.2215 115.973 63.1182C116.114 63.0056 116.231 62.8789 116.325 62.7381C116.457 62.5316 116.55 62.2828 116.607 61.9918C116.663 61.7008 116.691 61.3019 116.691 60.795V59.8658ZM127.009 62.8507C126.211 63.8175 125.221 64.301 124.038 64.301C123.484 64.301 122.982 64.2118 122.532 64.0334C122.081 63.8457 121.692 63.5876 121.363 63.259C121.044 62.9211 120.795 62.5222 120.617 62.0622C120.438 61.5929 120.349 61.0766 120.349 60.5134C120.349 59.9408 120.443 59.4105 120.631 58.9224C120.819 58.4343 121.081 58.0166 121.419 57.6693C121.767 57.322 122.175 57.0498 122.644 56.8526C123.123 56.6555 123.644 56.557 124.207 56.557C125.118 56.557 125.822 56.8057 126.319 57.3032C126.817 57.7913 127.065 58.4953 127.065 59.4152C127.065 59.5466 127.037 59.6264 126.981 59.6546C126.934 59.6827 126.817 59.6968 126.629 59.6968H121.997C121.978 59.7719 121.964 59.8658 121.954 59.9784C121.945 60.0816 121.94 60.199 121.94 60.3304C121.94 60.8185 121.997 61.2644 122.109 61.668C122.231 62.0622 122.4 62.4002 122.616 62.6818C122.841 62.9634 123.104 63.1839 123.405 63.3435C123.714 63.4937 124.057 63.5688 124.432 63.5688C124.827 63.5688 125.193 63.4843 125.531 63.3154C125.869 63.137 126.216 62.8507 126.573 62.4565L127.009 62.8507ZM124.686 59.0491C124.874 59.0491 125.024 59.0444 125.136 59.035C125.249 59.0256 125.334 59.0069 125.39 58.9787C125.446 58.9506 125.484 58.913 125.503 58.8661C125.521 58.8098 125.531 58.7394 125.531 58.6549C125.531 58.2231 125.39 57.8805 125.108 57.627C124.836 57.3642 124.461 57.2328 123.982 57.2328C122.968 57.2328 122.339 57.8382 122.095 59.0491H124.686Z" fill="white"/>
</svg>
