<svg width="150" height="48" viewBox="0 0 150 48" fill="none" xmlns="http://www.w3.org/2000/svg">
<path d="M0 24C0 11.0213 10.5213 0.5 23.5 0.5C36.4787 0.5 47 11.0213 47 24C47 36.9787 36.4787 47.5 23.5 47.5C10.5213 47.5 0 36.9787 0 24Z" fill="#004040"/>
<path d="M17.1906 22.0496C15.9184 24.3582 15.6634 27.0656 16.4369 29.5397L24.5182 21.4584C24.9388 21.0377 25.6209 21.0377 26.0416 21.4584C26.4623 21.8791 26.4623 22.5611 26.0416 22.9818L17.9603 31.0631C20.4344 31.8366 23.1419 31.5816 25.4506 30.3093C26.8114 29.5593 27.9695 28.4898 28.8254 27.193C29.6812 25.8961 30.2091 24.4107 30.3637 22.8646L31 16.5L24.6354 17.1363C23.0893 17.2908 21.6039 17.8188 20.307 18.6747C19.0101 19.5306 17.9406 20.6888 17.1906 22.0496Z" fill="white"/>
<path d="M70.3886 24.42C70.3886 25.368 70.2926 26.202 70.1006 26.922C69.9206 27.642 69.6206 28.242 69.2006 28.722C68.7926 29.202 68.2586 29.568 67.5986 29.82C66.9386 30.06 66.1406 30.18 65.2046 30.18C64.3166 30.18 63.5426 30.096 62.8826 29.928C62.2226 29.748 61.6706 29.46 61.2266 29.064C60.7826 28.656 60.4526 28.128 60.2366 27.48C60.0206 26.832 59.9126 26.034 59.9126 25.086V20.334C59.9126 19.446 59.8886 18.762 59.8406 18.282C59.8046 17.802 59.6846 17.448 59.4806 17.22C59.3366 17.064 59.1386 16.962 58.8866 16.914C58.6466 16.854 58.3226 16.824 57.9146 16.824V16.14H64.0526V16.824C63.6446 16.824 63.3146 16.848 63.0626 16.896C62.8106 16.944 62.6126 17.064 62.4686 17.256C62.3006 17.472 62.1926 17.82 62.1446 18.3C62.0966 18.768 62.0726 19.446 62.0726 20.334V25.23C62.0726 25.842 62.1326 26.388 62.2526 26.868C62.3846 27.336 62.5946 27.738 62.8826 28.074C63.1706 28.398 63.5426 28.644 63.9986 28.812C64.4666 28.98 65.0366 29.064 65.7086 29.064C66.9086 29.064 67.8086 28.734 68.4086 28.074C69.0086 27.402 69.3086 26.418 69.3086 25.122V20.784C69.3086 19.716 69.2666 18.906 69.1826 18.354C69.0986 17.802 68.9426 17.412 68.7146 17.184C68.5466 17.028 68.3366 16.932 68.0846 16.896C67.8326 16.848 67.5206 16.824 67.1486 16.824V16.14H72.3686V16.824C71.9846 16.824 71.6666 16.854 71.4146 16.914C71.1746 16.974 70.9826 17.106 70.8386 17.31C70.6586 17.562 70.5386 17.958 70.4786 18.498C70.4186 19.026 70.3886 19.788 70.3886 20.784V24.42ZM76.2044 27.174C76.2044 27.666 76.2164 28.056 76.2404 28.344C76.2644 28.62 76.3244 28.836 76.4204 28.992C76.5284 29.136 76.6784 29.232 76.8704 29.28C77.0744 29.328 77.3504 29.364 77.6984 29.388V30H72.9824V29.388C73.3184 29.364 73.5824 29.328 73.7744 29.28C73.9784 29.232 74.1344 29.136 74.2424 28.992C74.3504 28.848 74.4164 28.644 74.4404 28.38C74.4764 28.116 74.4944 27.756 74.4944 27.3V24.906C74.4944 23.478 74.4584 22.608 74.3864 22.296C74.3504 22.14 74.3024 22.014 74.2424 21.918C74.1944 21.81 74.1164 21.732 74.0084 21.684C73.9004 21.624 73.7624 21.588 73.5944 21.576C73.4264 21.552 73.2104 21.54 72.9464 21.54V20.964L75.8264 20.28L76.0424 22.062H76.1144C76.5704 21.498 77.1044 21.06 77.7164 20.748C78.3284 20.436 78.9944 20.28 79.7144 20.28C80.2664 20.28 80.7704 20.37 81.2264 20.55C81.6824 20.73 82.0304 20.976 82.2704 21.288C82.4744 21.564 82.6184 21.924 82.7024 22.368C82.7864 22.8 82.8284 23.4 82.8284 24.168V27.174C82.8284 27.666 82.8404 28.056 82.8644 28.344C82.9004 28.62 82.9664 28.836 83.0624 28.992C83.1584 29.136 83.3024 29.232 83.4944 29.28C83.6984 29.328 83.9624 29.364 84.2864 29.388V30H79.6244V29.388C79.9604 29.376 80.2244 29.346 80.4164 29.298C80.6204 29.238 80.7704 29.136 80.8664 28.992C80.9744 28.848 81.0404 28.644 81.0644 28.38C81.1004 28.104 81.1184 27.744 81.1184 27.3V24.924C81.1184 24.24 81.0824 23.664 81.0104 23.196C80.9384 22.728 80.8184 22.35 80.6504 22.062C80.4944 21.774 80.2844 21.57 80.0204 21.45C79.7564 21.318 79.4384 21.252 79.0664 21.252C78.5264 21.252 78.0284 21.396 77.5724 21.684C77.1284 21.96 76.7804 22.344 76.5284 22.836C76.4684 22.956 76.4144 23.07 76.3664 23.178C76.3304 23.286 76.3004 23.412 76.2764 23.556C76.2524 23.7 76.2344 23.868 76.2224 24.06C76.2104 24.24 76.2044 24.474 76.2044 24.762V27.174ZM88.8306 27.138C88.8306 27.606 88.8486 27.984 88.8846 28.272C88.9326 28.548 89.0166 28.77 89.1366 28.938C89.2566 29.094 89.4246 29.202 89.6406 29.262C89.8566 29.322 90.1446 29.358 90.5046 29.37V30H85.3386V29.37C85.6986 29.358 85.9926 29.322 86.2206 29.262C86.4486 29.19 86.6226 29.082 86.7426 28.938C86.8746 28.782 86.9586 28.572 86.9946 28.308C87.0426 28.032 87.0666 27.684 87.0666 27.264V24.96C87.0666 24.264 87.0546 23.694 87.0306 23.25C87.0186 22.794 86.9886 22.482 86.9406 22.314C86.8806 22.038 86.7426 21.852 86.5266 21.756C86.3106 21.648 85.9026 21.594 85.3026 21.594V20.964L88.8306 20.28V27.138ZM86.7606 16.626C86.7606 16.314 86.8686 16.05 87.0846 15.834C87.3006 15.618 87.5646 15.51 87.8766 15.51C88.1886 15.51 88.4526 15.618 88.6686 15.834C88.8846 16.05 88.9926 16.314 88.9926 16.626C88.9926 16.938 88.8846 17.202 88.6686 17.418C88.4526 17.634 88.1886 17.742 87.8766 17.742C87.5646 17.742 87.3006 17.634 87.0846 17.418C86.8686 17.202 86.7606 16.938 86.7606 16.626ZM99.9693 28.506C99.5373 29.034 98.9793 29.448 98.2953 29.748C97.6113 30.036 96.8733 30.18 96.0813 30.18C95.4453 30.18 94.8573 30.066 94.3173 29.838C93.7893 29.598 93.3333 29.268 92.9493 28.848C92.5653 28.416 92.2653 27.9 92.0493 27.3C91.8453 26.7 91.7433 26.034 91.7433 25.302C91.7433 24.534 91.8633 23.844 92.1033 23.232C92.3433 22.608 92.6793 22.08 93.1113 21.648C93.5553 21.204 94.0833 20.868 94.6953 20.64C95.3193 20.4 96.0033 20.28 96.7473 20.28C97.2153 20.28 97.6413 20.322 98.0253 20.406C98.4093 20.478 98.7393 20.586 99.0153 20.73C99.3033 20.862 99.5253 21.03 99.6813 21.234C99.8373 21.426 99.9153 21.636 99.9153 21.864C99.9153 22.104 99.8373 22.29 99.6813 22.422C99.5253 22.554 99.3093 22.62 99.0333 22.62C98.8173 22.62 98.6373 22.578 98.4933 22.494C98.3493 22.398 98.1633 22.194 97.9353 21.882C97.6953 21.606 97.4613 21.414 97.2333 21.306C97.0173 21.186 96.7353 21.126 96.3873 21.126C95.5353 21.126 94.8873 21.456 94.4433 22.116C94.0113 22.776 93.7953 23.748 93.7953 25.032C93.7953 26.412 94.0353 27.462 94.5153 28.182C95.0073 28.89 95.7213 29.244 96.6573 29.244C97.1613 29.244 97.6353 29.148 98.0793 28.956C98.5233 28.752 98.9733 28.428 99.4293 27.984L99.9693 28.506ZM108.846 23.34C108.846 22.848 108.834 22.464 108.81 22.188C108.786 21.9 108.72 21.684 108.612 21.54C108.516 21.384 108.366 21.282 108.162 21.234C107.97 21.174 107.7 21.126 107.352 21.09V20.46H110.61V25.986C110.61 26.67 110.616 27.228 110.628 27.66C110.652 28.092 110.682 28.416 110.718 28.632C110.742 28.788 110.778 28.914 110.826 29.01C110.886 29.094 110.97 29.166 111.078 29.226C111.186 29.274 111.324 29.31 111.492 29.334C111.672 29.346 111.9 29.352 112.176 29.352V29.982L109.206 30.198L109.008 28.038H108.936C108.48 28.782 107.952 29.328 107.352 29.676C106.764 30.012 106.146 30.18 105.498 30.18C104.994 30.18 104.502 30.084 104.022 29.892C103.554 29.7 103.2 29.442 102.96 29.118C102.756 28.854 102.606 28.488 102.51 28.02C102.426 27.552 102.384 26.946 102.384 26.202V23.34C102.384 22.848 102.372 22.464 102.348 22.188C102.324 21.9 102.258 21.684 102.15 21.54C102.054 21.384 101.904 21.282 101.7 21.234C101.508 21.174 101.238 21.126 100.89 21.09V20.46H104.148V25.374C104.148 26.682 104.298 27.63 104.598 28.218C104.91 28.806 105.402 29.1 106.074 29.1C107.13 29.1 107.952 28.41 108.54 27.03C108.6 26.886 108.648 26.754 108.684 26.634C108.72 26.514 108.75 26.382 108.774 26.238C108.798 26.094 108.816 25.932 108.828 25.752C108.84 25.572 108.846 25.356 108.846 25.104V23.34ZM114.118 30H113.722V26.904H114.172C114.64 28.596 115.492 29.442 116.728 29.442C117.208 29.442 117.586 29.328 117.862 29.1C118.15 28.86 118.294 28.5 118.294 28.02C118.294 27.84 118.264 27.69 118.204 27.57C118.156 27.438 118.054 27.306 117.898 27.174C117.754 27.03 117.544 26.868 117.268 26.688C117.004 26.508 116.65 26.28 116.206 26.004C115.798 25.752 115.444 25.518 115.144 25.302C114.844 25.086 114.592 24.87 114.388 24.654C114.184 24.426 114.028 24.186 113.92 23.934C113.824 23.682 113.776 23.388 113.776 23.052C113.776 22.644 113.842 22.272 113.974 21.936C114.118 21.588 114.31 21.294 114.55 21.054C114.79 20.814 115.072 20.628 115.396 20.496C115.72 20.352 116.074 20.28 116.458 20.28C116.782 20.28 117.118 20.334 117.466 20.442C117.814 20.538 118.12 20.67 118.384 20.838L118.744 20.46H119.086V23.052H118.618C118.354 22.32 118.066 21.798 117.754 21.486C117.442 21.174 117.058 21.018 116.602 21.018C116.194 21.018 115.864 21.126 115.612 21.342C115.372 21.558 115.252 21.858 115.252 22.242C115.252 22.446 115.282 22.626 115.342 22.782C115.414 22.926 115.522 23.07 115.666 23.214C115.81 23.358 115.99 23.508 116.206 23.664C116.434 23.808 116.704 23.976 117.016 24.168C117.532 24.492 117.97 24.78 118.33 25.032C118.702 25.284 119.002 25.536 119.23 25.788C119.458 26.028 119.626 26.28 119.734 26.544C119.842 26.808 119.896 27.108 119.896 27.444C119.896 28.296 119.62 28.968 119.068 29.46C118.516 29.94 117.79 30.18 116.89 30.18C115.954 30.18 115.15 29.91 114.478 29.37L114.118 30ZM124.848 27.138C124.848 27.606 124.866 27.984 124.902 28.272C124.95 28.548 125.034 28.77 125.154 28.938C125.274 29.094 125.442 29.202 125.658 29.262C125.874 29.322 126.162 29.358 126.522 29.37V30H121.356V29.37C121.716 29.358 122.01 29.322 122.238 29.262C122.466 29.19 122.64 29.082 122.76 28.938C122.892 28.782 122.976 28.572 123.012 28.308C123.06 28.032 123.084 27.684 123.084 27.264V24.96C123.084 24.264 123.072 23.694 123.048 23.25C123.036 22.794 123.006 22.482 122.958 22.314C122.898 22.038 122.76 21.852 122.544 21.756C122.328 21.648 121.92 21.594 121.32 21.594V20.964L124.848 20.28V27.138ZM122.778 16.626C122.778 16.314 122.886 16.05 123.102 15.834C123.318 15.618 123.582 15.51 123.894 15.51C124.206 15.51 124.47 15.618 124.686 15.834C124.902 16.05 125.01 16.314 125.01 16.626C125.01 16.938 124.902 17.202 124.686 17.418C124.47 17.634 124.206 17.742 123.894 17.742C123.582 17.742 123.318 17.634 123.102 17.418C122.886 17.202 122.778 16.938 122.778 16.626ZM130.767 27.174C130.767 27.666 130.779 28.056 130.803 28.344C130.827 28.62 130.887 28.836 130.983 28.992C131.091 29.136 131.241 29.232 131.433 29.28C131.637 29.328 131.913 29.364 132.261 29.388V30H127.545V29.388C127.881 29.364 128.145 29.328 128.337 29.28C128.541 29.232 128.697 29.136 128.805 28.992C128.913 28.848 128.979 28.644 129.003 28.38C129.039 28.116 129.057 27.756 129.057 27.3V24.906C129.057 23.478 129.021 22.608 128.949 22.296C128.913 22.14 128.865 22.014 128.805 21.918C128.757 21.81 128.679 21.732 128.571 21.684C128.463 21.624 128.325 21.588 128.157 21.576C127.989 21.552 127.773 21.54 127.509 21.54V20.964L130.389 20.28L130.605 22.062H130.677C131.133 21.498 131.667 21.06 132.279 20.748C132.891 20.436 133.557 20.28 134.277 20.28C134.829 20.28 135.333 20.37 135.789 20.55C136.245 20.73 136.593 20.976 136.833 21.288C137.037 21.564 137.181 21.924 137.265 22.368C137.349 22.8 137.391 23.4 137.391 24.168V27.174C137.391 27.666 137.403 28.056 137.427 28.344C137.463 28.62 137.529 28.836 137.625 28.992C137.721 29.136 137.865 29.232 138.057 29.28C138.261 29.328 138.525 29.364 138.849 29.388V30H134.187V29.388C134.523 29.376 134.787 29.346 134.979 29.298C135.183 29.238 135.333 29.136 135.429 28.992C135.537 28.848 135.603 28.644 135.627 28.38C135.663 28.104 135.681 27.744 135.681 27.3V24.924C135.681 24.24 135.645 23.664 135.573 23.196C135.501 22.728 135.381 22.35 135.213 22.062C135.057 21.774 134.847 21.57 134.583 21.45C134.319 21.318 134.001 21.252 133.629 21.252C133.089 21.252 132.591 21.396 132.135 21.684C131.691 21.96 131.343 22.344 131.091 22.836C131.031 22.956 130.977 23.07 130.929 23.178C130.893 23.286 130.863 23.412 130.839 23.556C130.815 23.7 130.797 23.868 130.785 24.06C130.773 24.24 130.767 24.474 130.767 24.762V27.174ZM148.685 28.326C147.665 29.562 146.399 30.18 144.887 30.18C144.179 30.18 143.537 30.066 142.961 29.838C142.385 29.598 141.887 29.268 141.467 28.848C141.059 28.416 140.741 27.906 140.513 27.318C140.285 26.718 140.171 26.058 140.171 25.338C140.171 24.606 140.291 23.928 140.531 23.304C140.771 22.68 141.107 22.146 141.539 21.702C141.983 21.258 142.505 20.91 143.105 20.658C143.717 20.406 144.383 20.28 145.103 20.28C146.267 20.28 147.167 20.598 147.803 21.234C148.439 21.858 148.757 22.758 148.757 23.934C148.757 24.102 148.721 24.204 148.649 24.24C148.589 24.276 148.439 24.294 148.199 24.294H142.277C142.253 24.39 142.235 24.51 142.223 24.654C142.211 24.786 142.205 24.936 142.205 25.104C142.205 25.728 142.277 26.298 142.421 26.814C142.577 27.318 142.793 27.75 143.069 28.11C143.357 28.47 143.693 28.752 144.077 28.956C144.473 29.148 144.911 29.244 145.391 29.244C145.895 29.244 146.363 29.136 146.795 28.92C147.227 28.692 147.671 28.326 148.127 27.822L148.685 28.326ZM145.715 23.466C145.955 23.466 146.147 23.46 146.291 23.448C146.435 23.436 146.543 23.412 146.615 23.376C146.687 23.34 146.735 23.292 146.759 23.232C146.783 23.16 146.795 23.07 146.795 22.962C146.795 22.41 146.615 21.972 146.255 21.648C145.907 21.312 145.427 21.144 144.815 21.144C143.519 21.144 142.715 21.918 142.403 23.466H145.715Z" fill="#09332E"/>
</svg>
