<svg width="186" height="110" viewBox="0 0 186 110" fill="none" xmlns="http://www.w3.org/2000/svg">
<path d="M30.5354 32.3602L31.5093 32.5971L31.744 31.6227C34.2055 21.4033 43.3875 13.8155 54.3323 13.8155C59.9321 13.8155 65.0672 15.8002 69.0795 19.1075L70.2996 20.1132L70.6854 18.5798C73.2275 8.47538 82.3542 1 93.2177 1C103.925 1 112.945 8.2615 115.636 18.1451L116.046 19.6489L117.242 18.65C121.271 15.286 126.45 13.2636 132.103 13.2636C143.048 13.2636 152.23 20.8514 154.691 31.0707L154.926 32.0452L155.9 31.8082C157.662 31.3794 159.504 31.1519 161.4 31.1519C174.231 31.1519 184.637 41.5797 184.637 54.4481C184.637 54.6251 184.635 54.8016 184.631 54.9778L184.631 55L184.631 55.0222C184.635 55.1983 184.637 55.3749 184.637 55.5519C184.637 68.4203 174.231 78.8481 161.4 78.8481C159.504 78.8481 157.662 78.6206 155.9 78.1918L154.926 77.9548L154.691 78.9293C152.23 89.1486 143.048 96.7364 132.103 96.7364C126.45 96.7364 121.271 94.714 117.242 91.35L116.046 90.3511L115.636 91.8549C112.945 101.738 103.925 109 93.2177 109C82.3542 109 73.2275 101.525 70.6854 91.4202L70.2996 89.8868L69.0795 90.8925C65.0672 94.1999 59.9321 96.1845 54.3323 96.1845C43.3875 96.1845 34.2055 88.5967 31.744 78.3773L31.5093 77.4029L30.5354 77.6399C28.7731 78.0686 26.9313 78.2961 25.0351 78.2961C12.2041 78.2961 1.79834 67.8684 1.79834 55C1.79834 42.1316 12.2041 31.7039 25.0351 31.7039C26.9313 31.7039 28.7731 31.9314 30.5354 32.3602Z" fill="#09332E" stroke="white" stroke-width="2"/>
<circle cx="93.2178" cy="35" r="18" fill="white"/>
<g clip-path="url(#clip0_53_284)">
<path d="M93.2158 46.625C99.6361 46.625 104.841 41.4203 104.841 35C104.841 28.5797 99.6361 23.375 93.2158 23.375C86.7955 23.375 81.5908 28.5797 81.5908 35C81.5908 41.4203 86.7955 46.625 93.2158 46.625Z" fill="#E4E4E4"/>
<path d="M93.2158 45.5C99.0148 45.5 103.716 40.799 103.716 35C103.716 29.201 99.0148 24.5 93.2158 24.5C87.4168 24.5 82.7158 29.201 82.7158 35C82.7158 40.799 87.4168 45.5 93.2158 45.5Z" fill="#5C4535"/>
<path d="M93.2158 44.75C98.6006 44.75 102.966 40.3848 102.966 35C102.966 29.6152 98.6006 25.25 93.2158 25.25C87.831 25.25 83.4658 29.6152 83.4658 35C83.4658 40.3848 87.831 44.75 93.2158 44.75Z" fill="#FFFFEC"/>
<path d="M93.2158 44.75C98.6006 44.75 102.966 40.3848 102.966 35C102.966 29.6152 98.6006 25.25 93.2158 25.25C87.831 25.25 83.4658 29.6152 83.4658 35C83.4658 40.3848 87.831 44.75 93.2158 44.75Z" fill="#DA3427"/>
<path d="M101.771 28.2175C101.652 28.2972 101.553 28.4035 101.482 28.528C101.942 29.1127 102.338 29.7448 102.664 30.4135C102.878 30.4015 103.081 30.3145 103.237 30.1677C103.393 30.0209 103.492 29.8237 103.517 29.611C103.244 29.0888 102.931 28.5883 102.582 28.1136C102.448 28.0683 102.305 28.0541 102.164 28.0721C102.024 28.0901 101.889 28.1398 101.771 28.2175ZM97.4836 45.0501C97.4387 44.915 97.3632 44.7921 97.2631 44.6909C94.7945 45.7192 92.027 45.7688 89.5231 44.8296C89.3781 44.9868 89.2923 45.1896 89.2806 45.4032C89.2688 45.6168 89.3318 45.8278 89.4586 46C92.0315 46.8796 94.8314 46.8294 97.3711 45.8582C97.4499 45.7409 97.501 45.6071 97.5204 45.4671C97.5399 45.3271 97.5273 45.1845 97.4836 45.0501ZM101.739 41.8214C101.635 41.7237 101.511 41.6512 101.374 41.6095C100.615 42.5455 99.7011 43.3446 98.672 43.972C98.7066 44.1832 98.8136 44.3758 98.9746 44.5168C99.1357 44.6577 99.3408 44.7382 99.5548 44.7445C100.475 44.1446 101.306 43.4181 102.023 42.5864C102.037 42.4457 102.018 42.3037 101.969 42.1712C101.92 42.0387 101.841 41.9191 101.739 41.8214ZM104.075 30.8455C103.898 30.7247 103.685 30.6692 103.472 30.6886C103.259 30.7081 103.059 30.8012 102.908 30.952C103.837 33.1838 103.97 35.6678 103.283 37.9859C103.394 38.0752 103.525 38.1373 103.665 38.1674C103.803 38.197 103.946 38.1947 104.083 38.1606C104.221 38.1264 104.348 38.0614 104.456 37.9705C105.077 35.6139 104.943 33.1219 104.073 30.8455H104.075ZM83.366 30.2931C83.4897 30.3638 83.6281 30.405 83.7703 30.4135C84.0965 29.745 84.4927 29.1129 84.9523 28.528C84.8462 28.3415 84.6783 28.1979 84.4776 28.1222C84.2768 28.0465 84.056 28.0433 83.8531 28.1132C83.503 28.5887 83.1896 29.0901 82.9156 29.6132C82.9343 29.7533 82.9846 29.8872 83.0626 30.005C83.1406 30.1228 83.2444 30.2213 83.366 30.2931ZM87.6009 44.3616C87.6836 44.2461 87.7388 44.1132 87.7621 43.9731C86.7339 43.3455 85.8207 42.5464 85.0621 41.6106C84.8577 41.6725 84.6812 41.8037 84.5629 41.9817C84.4447 42.1596 84.3921 42.3731 84.4141 42.5856C85.1304 43.4176 85.9605 44.1444 86.8798 44.7445C87.0211 44.7396 87.1596 44.7026 87.2845 44.6363C87.4095 44.5699 87.5177 44.476 87.6009 44.3616ZM82.7679 38.1674C82.9077 38.1371 83.0386 38.0748 83.1504 37.9855C82.4632 35.6677 82.5957 33.1839 83.5254 30.9524C83.3737 30.8015 83.1742 30.7082 82.9611 30.6887C82.7481 30.6692 82.5349 30.7246 82.3584 30.8455C81.4881 33.1219 81.3542 35.614 81.9755 37.9705C82.0837 38.0613 82.2111 38.1262 82.3482 38.1603C82.4853 38.1943 82.6283 38.1966 82.7664 38.167L82.7679 38.1674Z" fill="#A0775B"/>
<path d="M103.861 38.1876C103.796 38.1875 103.731 38.1806 103.667 38.167C103.527 38.1369 103.397 38.0748 103.285 37.9855C102.893 39.3074 102.244 40.539 101.375 41.6095C101.579 41.6715 101.756 41.8028 101.874 41.9807C101.992 42.1586 102.045 42.372 102.023 42.5845C101.666 42.9997 101.28 43.3894 100.868 43.7507C102.802 42.0628 104.123 39.7813 104.622 37.2632C104.575 37.501 104.521 37.7361 104.46 37.9686C104.292 38.1093 104.08 38.1868 103.861 38.1876ZM103.069 30.2931C102.945 30.3638 102.807 30.4049 102.665 30.4135C102.751 30.59 102.832 30.7695 102.908 30.952C103.06 30.8012 103.26 30.7081 103.473 30.6886C103.686 30.6692 103.899 30.7247 104.075 30.8455C103.809 30.1499 103.476 29.4817 103.081 28.8501C103.235 29.0981 103.38 29.3519 103.517 29.6114C103.499 29.7515 103.449 29.8857 103.371 30.0038C103.294 30.1219 103.19 30.2209 103.069 30.2931ZM84.6639 28.2175C84.783 28.2972 84.882 28.4035 84.9531 28.528C85.9346 27.2733 87.1889 26.2585 88.6208 25.5607C90.0528 24.8628 91.6249 24.5001 93.2179 24.5001C94.8108 24.5001 96.3829 24.8628 97.8149 25.5607C99.2469 26.2585 100.501 27.2733 101.483 28.528C101.589 28.3413 101.757 28.1977 101.958 28.122C102.159 28.0463 102.38 28.0433 102.583 28.1136C101.459 26.5855 99.9791 25.3556 98.2713 24.531C96.5634 23.7064 94.6797 23.3123 92.7845 23.3831C90.8893 23.4538 89.0402 23.9873 87.3986 24.9369C85.757 25.8865 84.3726 27.2234 83.3664 28.831C83.5202 28.5855 83.6827 28.3462 83.8539 28.1132C83.988 28.0679 84.1306 28.0537 84.271 28.0718C84.4113 28.0899 84.5457 28.1397 84.6639 28.2175ZM89.3181 45.1971C89.3579 45.0604 89.4289 44.9347 89.5254 44.83C88.9124 44.6001 88.3223 44.3132 87.7629 43.9731C87.7282 44.1839 87.6214 44.3761 87.4606 44.5168C87.2999 44.6575 87.0952 44.738 86.8817 44.7445C87.6856 45.2682 88.5515 45.6901 89.4594 46.0004C89.3765 45.886 89.3207 45.7542 89.2962 45.615C89.2717 45.4759 89.2792 45.3329 89.3181 45.1971ZM98.8341 44.3616C98.7514 44.2462 98.6962 44.1135 98.6728 43.9735C98.2216 44.248 97.7502 44.4881 97.2628 44.6916C97.4136 44.8434 97.5066 45.0431 97.526 45.2562C97.5454 45.4693 97.4898 45.6824 97.3689 45.859C97.2189 45.9167 97.0656 45.9715 96.9118 46.0221C97.8438 45.7104 98.7322 45.281 99.5556 44.7445C99.4141 44.7397 99.2756 44.7027 99.1506 44.6364C99.0256 44.57 98.9173 44.4761 98.8341 44.3616ZM83.1681 30.7315C83.3032 30.7765 83.4262 30.8521 83.5273 30.9524C83.6023 30.7701 83.6834 30.5905 83.7707 30.4135C83.5569 30.4016 83.3541 30.3147 83.198 30.1681C83.042 30.0214 82.9426 29.8244 82.9176 29.6117C83.0541 29.3517 83.2001 29.0979 83.3556 28.8501C82.9608 29.4816 82.628 30.1499 82.3618 30.8455C82.4788 30.7668 82.6122 30.7156 82.7518 30.6959C82.8915 30.6761 83.0338 30.6883 83.1681 30.7315ZM85.0611 41.6095C84.1921 40.539 83.543 39.3074 83.1512 37.9855C82.984 38.119 82.7758 38.1906 82.5619 38.1879C82.348 38.1852 82.1416 38.1085 81.9778 37.9709C81.9163 37.7384 81.8622 37.5031 81.8154 37.2651C82.2057 39.2337 83.1008 41.0671 84.4131 42.5856C84.391 42.3731 84.4436 42.1596 84.5618 41.9817C84.6801 41.8037 84.8566 41.6725 85.0611 41.6106V41.6095Z" fill="#886454"/>
<path d="M93.2158 41.75C90.8899 41.7498 88.6406 40.9182 86.8739 39.4054C85.1071 37.8926 83.9392 35.7982 83.5809 33.5C83.3654 34.8901 83.4532 36.3104 83.8384 37.6633C84.2235 39.0163 84.8969 40.2699 85.8122 41.3381C86.7275 42.4062 87.8631 43.2637 89.1411 43.8516C90.4191 44.4395 91.8091 44.7439 93.2158 44.7439C94.6225 44.7439 96.0126 44.4395 97.2905 43.8516C98.5685 43.2637 99.7041 42.4062 100.619 41.3381C101.535 40.2699 102.208 39.0163 102.593 37.6633C102.978 36.3104 103.066 34.8901 102.851 33.5C102.492 35.7982 101.325 37.8926 99.5578 39.4054C97.791 40.9182 95.5418 41.7498 93.2158 41.75Z" fill="#91000C"/>
<path d="M100.376 41.5123C100.211 41.6956 100.001 41.8327 99.7672 41.9098C99.1413 42.0695 98.5818 41.4598 97.9447 41.3582C97.6746 41.3407 97.4039 41.3795 97.1496 41.4722C96.8953 41.5648 96.6631 41.7092 96.4675 41.8963C96.0763 42.2727 95.6545 42.616 95.2064 42.9227C94.981 43.0723 94.717 43.1535 94.4464 43.1563C94.1758 43.1592 93.9102 43.0836 93.6817 42.9388C93.3442 42.6763 93.2114 42.2184 92.9272 41.8952C92.8815 41.8316 92.8129 41.7884 92.7359 41.7748C92.6705 41.7758 92.6077 41.8012 92.56 41.846C92.1944 42.1412 92.2312 42.7232 91.9803 43.1244C91.6072 43.7214 90.7357 43.7225 90.0952 43.4514C89.414 43.1591 88.8431 42.6582 88.4647 42.0208C88.2995 41.6882 88.1129 41.3668 87.9059 41.0585C87.2212 40.1885 85.966 40.0835 85.0608 39.4599C84.716 39.2198 84.4285 38.9064 84.2188 38.5423C84.0091 38.1782 83.8824 37.7723 83.8477 37.3535C83.8174 36.9337 83.8879 36.5127 84.0533 36.1256C84.2187 35.7385 84.4743 35.3966 84.7987 35.1283C84.912 35.0556 85.0079 34.9588 85.0795 34.8448C85.1312 34.7111 85.1461 34.5661 85.1227 34.4248L85.0004 32.8322C84.9607 32.3094 84.9472 31.7105 85.3188 31.3494C85.6769 31.0014 86.2563 31.0194 86.6568 30.7254C87.0573 30.4314 87.2005 29.891 87.4338 29.441C87.7611 28.887 88.1778 28.3911 88.6672 27.9733C89.1278 27.4945 89.6494 27.0784 90.2185 26.7358C90.5023 26.5665 90.8169 26.4553 91.144 26.4087C91.4711 26.3621 91.8042 26.381 92.1239 26.4643C92.4217 26.5584 92.6924 26.7268 92.9864 26.8269C93.7518 27.0868 94.5813 26.8704 95.3797 26.7519C96.0458 26.6223 96.7336 26.6584 97.3825 26.8569C97.7084 26.9627 98.0022 27.1491 98.2367 27.3989C98.4711 27.6487 98.6386 27.9538 98.7235 28.2857C98.8735 29.0259 98.4985 29.7583 98.3572 30.4982C98.2477 31.096 98.2876 31.7116 98.4733 32.2903C98.659 32.8691 98.9848 33.3929 99.4218 33.8154C99.799 34.1702 100.249 34.4364 100.63 34.787C101.281 35.3927 101.698 36.2074 101.81 37.0893C101.922 37.9712 101.72 38.8642 101.241 39.6129C101.058 39.8721 100.963 40.183 100.969 40.5002C100.887 40.8933 100.679 41.2488 100.376 41.5123Z" fill="#7A000A"/>
<path d="M83.8486 37.3529C83.8832 37.7717 84.01 38.1776 84.2197 38.5417C84.4294 38.9058 84.7169 39.2192 85.0617 39.4593C85.9669 40.0841 87.2221 40.1879 87.9068 41.0579C88.1138 41.3662 88.3004 41.6876 88.4656 42.0202C88.844 42.6576 89.4149 43.1585 90.0961 43.4508C90.7366 43.7219 91.6081 43.7208 91.9812 43.1238C92.2321 42.7226 92.1953 42.1406 92.5609 41.8454C92.6087 41.8008 92.6714 41.7754 92.7368 41.7742C92.8138 41.7879 92.8824 41.8311 92.9281 41.8946C93.2123 42.2178 93.3451 42.6738 93.6826 42.9382C93.9111 43.083 94.1767 43.1586 94.4473 43.1557C94.7179 43.1529 94.9819 43.0717 95.2073 42.9221C95.6554 42.6154 96.0772 42.2721 96.4684 41.8957C96.664 41.7086 96.8962 41.5642 97.1505 41.4716C97.4048 41.3789 97.6755 41.3401 97.9456 41.3576C98.5831 41.4599 99.1422 42.0701 99.7681 41.9092C100.002 41.8321 100.212 41.695 100.377 41.5117C100.68 41.2483 100.889 40.8927 100.971 40.4992C100.965 40.1823 101.06 39.8716 101.242 39.6123C101.669 38.9377 101.876 38.1468 101.834 37.3492C101.821 37.1396 101.791 36.9315 101.742 36.7271C100.856 38.3269 99.5365 39.6449 97.936 40.5303C96.3354 41.4156 94.5179 41.8327 92.6914 41.7337C90.8649 41.6347 89.1032 41.0237 87.6076 39.9706C86.1121 38.9174 84.9431 37.4646 84.2344 35.7783C83.9471 36.2511 83.8123 36.8009 83.8486 37.3529Z" fill="#690009"/>
<path d="M97.4593 27.605C97.7242 27.7352 97.9277 27.9637 98.0264 28.2419C98.1252 28.52 98.1114 28.8256 97.9881 29.0938L95.9672 33.545C95.9409 33.515 95.9147 33.485 95.8847 33.455C95.7273 33.2982 95.527 33.1916 95.3091 33.1485C95.0912 33.1054 94.8654 33.1278 94.6602 33.2128C94.455 33.2978 94.2796 33.4417 94.156 33.6263C94.0324 33.8108 93.9662 34.0279 93.9658 34.25V32.6975L96.1108 27.98V27.9763L96.1146 27.9688C96.2141 27.8249 96.3468 27.7072 96.5016 27.6256C96.6563 27.544 96.8284 27.5009 97.0033 27.5C97.1613 27.5005 97.3171 27.5364 97.4593 27.605Z" fill="#FF8340"/>
<path d="M95.5858 26.48C95.8506 26.6102 96.0541 26.8387 96.1529 27.1168C96.2517 27.395 96.2379 27.7006 96.1145 27.9687L96.1108 27.9763V27.98L93.9669 32.6975V32.375C93.9674 32.1568 93.9043 31.9432 93.7853 31.7603C93.6663 31.5774 93.4965 31.4331 93.2968 31.3452C93.0971 31.2572 92.8761 31.2294 92.6608 31.2651C92.4456 31.3009 92.2454 31.3985 92.0848 31.5462L94.1394 27.02C94.2247 26.8285 94.3635 26.6658 94.5391 26.5513C94.7148 26.4369 94.9198 26.3757 95.1294 26.375C95.2874 26.3755 95.4434 26.4113 95.5858 26.48ZM91.7649 41.7162C91.9739 41.9263 92.091 42.2106 92.0907 42.5069C92.0903 42.8032 91.9724 43.0873 91.7629 43.2968C91.5534 43.5063 91.2693 43.6241 90.9731 43.6245C90.6768 43.6249 90.3924 43.5077 90.1824 43.2987L84.9181 38.0337C84.7137 37.8228 84.6003 37.54 84.6026 37.2462C84.6048 36.9525 84.7225 36.6714 84.9302 36.4637C85.1379 36.2559 85.4189 36.1382 85.7127 36.1359C86.0064 36.1335 86.2893 36.2468 86.5003 36.4512L91.7649 41.7162ZM91.7169 39.875C91.7163 39.9038 91.7175 39.9326 91.7206 39.9612C91.5083 40.153 91.2305 40.256 90.9444 40.2491C90.6584 40.2421 90.3859 40.1256 90.1831 39.9237L89.0919 38.8325L84.9181 34.6587C84.7137 34.4478 84.6003 34.165 84.6026 33.8712C84.6048 33.5775 84.7225 33.2964 84.9302 33.0887C85.1379 32.8809 85.4189 32.7632 85.7127 32.7609C86.0064 32.7585 86.2893 32.8718 86.5003 33.0762L87.2169 33.7925L89.4669 36.0425L91.7169 38.2925V39.875Z" fill="#FF8340"/>
<path d="M89.4658 35.375V36.0425L87.2158 33.7925V30.5C87.2158 30.2016 87.3343 29.9155 87.5453 29.7045C87.7563 29.4935 88.0425 29.375 88.3408 29.375C88.6392 29.375 88.9253 29.4935 89.1363 29.7045C89.3473 29.9155 89.4658 30.2016 89.4658 30.5V35.375ZM91.7158 32.3488V35.375C91.7158 35.5227 91.6867 35.669 91.6302 35.8055C91.5736 35.942 91.4908 36.066 91.3863 36.1705C91.2818 36.275 91.1578 36.3578 91.0213 36.4144C90.8848 36.4709 90.7386 36.5 90.5908 36.5C90.4431 36.5 90.2968 36.4709 90.1603 36.4144C90.0238 36.3578 89.8998 36.275 89.7953 36.1705C89.6909 36.066 89.608 35.942 89.5515 35.8055C89.4949 35.669 89.4658 35.5227 89.4658 35.375V27.875C89.4658 27.5766 89.5843 27.2905 89.7953 27.0795C90.0063 26.8685 90.2925 26.75 90.5908 26.75C90.8892 26.75 91.1753 26.8685 91.3863 27.0795C91.5973 27.2905 91.7158 27.5766 91.7158 27.875V32.3488ZM96.2158 34.25V41.75C96.2158 42.0484 96.0973 42.3345 95.8863 42.5455C95.6753 42.7565 95.3892 42.875 95.0908 42.875C94.7925 42.875 94.5063 42.7565 94.2953 42.5455C94.0843 42.3345 93.9658 42.0484 93.9658 41.75V34.25C93.966 34.0276 94.0321 33.8103 94.1557 33.6255C94.2794 33.4407 94.455 33.2966 94.6604 33.2116C94.8659 33.1265 95.0919 33.1042 95.31 33.1476C95.5281 33.1909 95.7285 33.2979 95.8858 33.455C95.9158 33.485 95.9421 33.515 95.9683 33.545C96.1287 33.7449 96.216 33.9937 96.2158 34.25Z" fill="#FF8340"/>
<path d="M93.9659 34.25V39.875C93.9635 40.1642 93.8497 40.4414 93.6483 40.649C93.4468 40.8565 93.1732 40.9785 92.8841 40.9896C92.5951 41.0007 92.3129 40.9001 92.0961 40.7086C91.8794 40.5171 91.7447 40.2494 91.72 39.9612C91.7168 39.9326 91.7154 39.9038 91.7159 39.875V32.3488C91.7243 32.0555 91.8463 31.7769 92.0562 31.5719C92.2661 31.3668 92.5475 31.2514 92.8409 31.25C93.1393 31.25 93.4254 31.3685 93.6364 31.5795C93.8474 31.7905 93.9659 32.0766 93.9659 32.375V34.25Z" fill="#FF8340"/>
<path d="M96.2158 40.3662L96.0246 40.3174C95.8678 40.2812 95.7277 40.1936 95.6264 40.0686C95.5252 39.9436 95.4686 39.7883 95.4658 39.6274V38.7949L102.591 40.6249V41.0374C102.585 41.2316 102.502 41.4155 102.361 41.549C102.22 41.6824 102.031 41.7547 101.837 41.7499C101.774 41.7496 101.711 41.7421 101.65 41.7274L96.2158 40.3662Z" fill="#E35F17"/>
<path d="M102.591 40.5348V40.6248L95.4658 38.7948L96.2308 38.4011L102.013 35.4273L102.04 35.4161C102.096 35.3858 102.16 35.3707 102.224 35.3722C102.289 35.3736 102.351 35.3916 102.407 35.4244C102.462 35.4571 102.508 35.5036 102.54 35.5593C102.573 35.615 102.59 35.678 102.591 35.7423V40.5348Z" fill="#FFAF85"/>
<path d="M101.629 39.132C101.421 39.2667 101.172 39.3224 100.926 39.2891C100.731 39.2354 100.559 39.1195 100.435 38.9591C100.306 38.8058 100.204 38.631 100.083 38.4716C99.8638 38.1816 99.5829 37.9437 99.2608 37.7749C99.1058 37.7172 98.97 37.6171 98.8689 37.4861C98.8355 37.4211 98.8174 37.3493 98.8159 37.2762C98.8144 37.2031 98.8296 37.1306 98.8603 37.0643C98.8637 37.0556 98.8704 37.0493 98.8746 37.041L96.2308 38.4011L95.4658 38.7949L102.591 40.6249V38.5061C102.264 38.6933 101.961 38.949 101.629 39.132Z" fill="#FF8340"/>
<path d="M100.927 38.9142C100.732 38.8605 100.56 38.7446 100.436 38.5842C100.307 38.4309 100.205 38.2561 100.084 38.0967C99.8648 37.8067 99.584 37.5688 99.2618 37.4C99.1068 37.3423 98.971 37.2422 98.87 37.1112C98.864 37.1007 98.8617 37.0891 98.8568 37.0786C98.8287 37.1433 98.8154 37.2134 98.8176 37.2839C98.8199 37.3544 98.8378 37.4235 98.87 37.4862C98.971 37.6172 99.1068 37.7173 99.2618 37.775C99.5838 37.9434 99.8646 38.1808 100.084 38.4702C100.205 38.6304 100.307 38.8051 100.436 38.9577C100.56 39.1181 100.732 39.234 100.927 39.2877C101.173 39.321 101.422 39.2653 101.63 39.1306C101.962 38.9476 102.265 38.6919 102.592 38.5047V38.1297C102.265 38.3172 101.962 38.5726 101.63 38.7556C101.422 38.8908 101.173 38.9471 100.927 38.9142Z" fill="#EB8A56"/>
<path d="M96.9516 40.0335C97.2201 40.1363 97.4627 40.296 97.7248 40.413C98.3773 40.6704 99.0844 40.7577 99.7798 40.6669C100.254 40.5703 100.745 40.6025 101.203 40.7603C101.484 40.9418 101.751 41.1445 102.001 41.3667C102.112 41.4416 102.231 41.5038 102.356 41.5519C102.429 41.4877 102.488 41.4086 102.529 41.3199C102.569 41.2312 102.59 41.1349 102.591 41.0374V40.6249L95.4658 38.7949V39.6274C95.4668 39.7677 95.5107 39.9044 95.5918 40.0189C96.0332 39.8669 96.5136 39.8721 96.9516 40.0335Z" fill="#C95414"/>
<path d="M92.8939 39.5379C92.7552 39.3665 92.6611 39.1636 92.6198 38.947C92.5785 38.7304 92.5914 38.507 92.6573 38.2967C92.7563 37.868 92.9573 37.4675 93.0439 37.0359C93.0959 36.773 93.1035 36.5033 93.0664 36.2379C93.0323 35.9957 92.9611 35.7594 92.9269 35.5172C92.8827 35.2033 92.9007 34.8815 92.8336 34.5718C92.7364 34.2149 92.58 33.8768 92.3708 33.5717C92.1617 33.267 91.9936 32.9362 91.8709 32.5877C91.8021 32.3577 91.7899 32.1146 91.8353 31.8789C91.7617 32.0251 91.7211 32.1856 91.7164 32.3492V39.8754C91.7158 39.9042 91.7171 39.933 91.7202 39.9617C91.7468 40.2472 91.8815 40.5118 92.0967 40.7013C92.3118 40.8909 92.5913 40.9911 92.8779 40.9815C93.1645 40.972 93.4366 40.8533 93.6387 40.6498C93.8407 40.4463 93.9574 40.1733 93.9649 39.8867C93.577 39.9079 93.195 39.7835 92.8939 39.5379ZM95.1439 41.4129C95.0052 41.2415 94.9111 41.0386 94.8698 40.822C94.8285 40.6054 94.8414 40.382 94.9073 40.1717C95.0063 39.743 95.2073 39.3425 95.2939 38.9109C95.3459 38.648 95.3535 38.3783 95.3164 38.1129C95.2823 37.8707 95.2111 37.6344 95.1769 37.3922C95.1327 37.0783 95.1507 36.7547 95.0836 36.4468C94.9864 36.0899 94.83 35.7518 94.6208 35.4467C94.4117 35.142 94.2436 34.8112 94.1209 34.4627C94.0521 34.2327 94.0399 33.9896 94.0853 33.7539C94.0117 33.9001 93.9711 34.0606 93.9664 34.2242V41.7504C93.9658 41.7792 93.9671 41.808 93.9702 41.8367C93.9968 42.1222 94.1315 42.3868 94.3467 42.5763C94.5618 42.7659 94.8413 42.8661 95.1279 42.8565C95.4145 42.847 95.6866 42.7283 95.8887 42.5248C96.0907 42.3213 96.2074 42.0483 96.2149 41.7617C95.827 41.7829 95.445 41.6585 95.1439 41.4129ZM91.2334 42.4708C91.0865 42.4671 90.9423 42.4309 90.8111 42.3647C90.6799 42.2985 90.565 42.2039 90.4748 42.0879C90.2794 41.8697 90.1373 41.6094 89.9427 41.3889C89.4503 40.8264 88.6872 40.5767 88.1446 40.0633C87.5776 39.5263 87.2959 38.7459 86.7488 38.1883C86.3987 37.8619 86.004 37.5869 85.5766 37.3715C85.3501 37.2648 85.1481 37.1125 84.9833 36.9242C84.9047 36.8164 84.8516 36.6921 84.8281 36.5608C84.6624 36.7753 84.5802 37.0427 84.5968 37.3133C84.6135 37.5839 84.7277 37.8392 84.9184 38.0319L90.1827 43.2992C90.3703 43.4883 90.6194 43.6041 90.8849 43.6255C91.1505 43.6469 91.4149 43.5725 91.6304 43.4159C91.8458 43.2592 91.9981 43.0306 92.0596 42.7714C92.1212 42.5122 92.0879 42.2396 91.9658 42.0028C91.882 42.1265 91.7738 42.2319 91.6479 42.3123C91.522 42.3928 91.3809 42.4467 91.2334 42.4708Z" fill="#E65F16"/>
<path d="M89.0932 38.8329L90.1841 39.9242C90.3868 40.1261 90.6593 40.2425 90.9453 40.2495C91.2314 40.2564 91.5092 40.1534 91.7216 39.9617C91.7186 39.933 91.7174 39.9042 91.7182 39.8754V38.2929L91.4801 38.0548C91.3587 38.2597 91.2182 38.4527 91.0604 38.6312C90.9281 38.7789 90.7439 38.9278 90.5527 38.8753C90.3907 38.831 90.3018 38.6623 90.2264 38.5123C90.0984 38.2588 89.956 38.0127 89.8001 37.7754C89.6485 37.5248 89.4549 37.3022 89.2278 37.1173C88.8103 36.8821 88.3751 36.6799 87.9262 36.5124C86.9009 35.9702 86.4314 34.7582 85.5596 33.9932C85.3456 33.8408 85.1619 33.6501 85.0177 33.4307C84.9583 33.3128 84.9375 33.1792 84.9584 33.0489C84.9461 33.0598 84.9322 33.068 84.9209 33.0797C84.712 33.29 84.5947 33.5744 84.5947 33.8709C84.5947 34.1674 84.712 34.4518 84.9209 34.6622L89.0932 38.8329ZM90.6457 35.0379C90.507 34.8665 90.4128 34.6636 90.3715 34.447C90.3302 34.2304 90.3431 34.007 90.4091 33.7967C90.5081 33.368 90.7091 32.9675 90.7957 32.5359C90.8477 32.273 90.8553 32.0033 90.8182 31.7379C90.7841 31.4957 90.7128 31.2594 90.6787 31.0172C90.6344 30.7033 90.6524 30.3797 90.5853 30.0718C90.4881 29.7149 90.3317 29.3768 90.1226 29.0717C89.9135 28.767 89.7454 28.4362 89.6227 28.0877C89.5538 27.8577 89.5416 27.6146 89.5871 27.3789C89.5135 27.5251 89.4729 27.6856 89.4682 27.8492V35.3754C89.4676 35.4042 89.4688 35.433 89.4719 35.4617C89.4986 35.7472 89.6332 36.0118 89.8484 36.2013C90.0636 36.3909 90.343 36.4911 90.6296 36.4815C90.9162 36.472 91.1884 36.3533 91.3904 36.1498C91.5925 35.9463 91.7092 35.6733 91.7167 35.3867C91.3287 35.4079 90.9468 35.2835 90.6457 35.0379Z" fill="#E65F16"/>
<path d="M88.7638 33.2355C88.5679 33.1539 88.3963 33.023 88.2658 32.8556C88.1349 32.6274 88.0885 32.3604 88.1349 32.1015C88.1819 31.8451 88.2115 31.5859 88.2238 31.3256C88.1798 30.9365 88.0787 30.5561 87.9238 30.1965C87.8473 29.9794 87.8055 29.7516 87.8001 29.5215C87.6239 29.6173 87.4768 29.7587 87.374 29.9309C87.2712 30.1031 87.2166 30.2997 87.2158 30.5002V33.7927L89.4658 36.0427V33.4534C89.2199 33.4268 88.9815 33.3528 88.7638 33.2355Z" fill="#E65F16"/>
<path d="M89.0256 33.3477C89.0174 33.6481 88.949 33.9438 88.8246 34.2173C88.8132 34.2448 88.7954 34.2691 88.7728 34.2884C88.7501 34.3076 88.7231 34.3212 88.6941 34.3279C88.6671 34.3268 88.6407 34.3197 88.6168 34.3071C88.5929 34.2945 88.572 34.2768 88.5558 34.2552C88.3928 34.0141 88.256 33.7562 88.1478 33.4861C88.0999 33.3962 88.0286 33.3209 87.9415 33.2682C87.8779 33.2378 87.8102 33.2169 87.7405 33.2063C87.5654 33.1718 87.3895 33.1388 87.2178 33.0908V33.7924L89.4678 36.0424V33.4531C89.3161 33.4396 89.1671 33.4041 89.0256 33.3477Z" fill="#DB4F02"/>
<path d="M95.9166 27.5189C95.6695 27.778 95.359 27.9689 95.1108 28.2288C94.7906 28.5645 94.5887 28.9956 94.5359 29.4565C94.5059 29.7243 94.5276 29.9954 94.4984 30.2631C94.4845 30.5349 94.3679 30.7912 94.1721 30.9801C94.136 31.0162 94.088 31.0378 94.0371 31.0409C93.9986 31.0375 93.9615 31.0246 93.9291 31.0034C93.7575 30.9052 93.5956 30.7911 93.4454 30.6625C93.2971 30.5144 93.1305 30.3857 92.9496 30.2796C92.8686 30.2418 92.7826 30.2155 92.6943 30.2016L92.083 31.5479C92.2439 31.401 92.444 31.3039 92.6589 31.2686C92.8739 31.2332 93.0945 31.261 93.294 31.3486C93.4935 31.4362 93.6632 31.5798 93.7826 31.7621C93.902 31.9443 93.966 32.1573 93.9666 32.3751V32.6976L96.1116 27.9801V27.9764L96.1154 27.9689C96.2283 27.7178 96.2465 27.4344 96.1668 27.1709C96.1006 27.2984 96.0164 27.4156 95.9166 27.5189Z" fill="#E65F16"/>
<path d="M97.0746 28.3728C96.8742 28.7581 96.791 29.1937 96.8353 29.6257C96.8799 30.0554 96.8598 30.4893 96.7757 30.9131C96.706 31.1875 96.5568 31.4353 96.3469 31.6254C96.137 31.8154 95.8756 31.9393 95.5956 31.9814C95.2343 31.9742 94.8755 31.9199 94.5283 31.8198C94.477 31.8112 94.4253 31.8047 94.3734 31.8003L93.9658 32.6973V34.2498C93.966 34.0274 94.0321 33.8101 94.1557 33.6253C94.2794 33.4405 94.455 33.2964 94.6604 33.2114C94.8659 33.1263 95.0919 33.104 95.31 33.1474C95.5281 33.1907 95.7285 33.2977 95.8858 33.4548C95.9158 33.4848 95.9421 33.5148 95.9683 33.5448L97.9892 29.0936C98.0823 28.8889 98.1126 28.6612 98.0765 28.4393C98.0403 28.2174 97.9392 28.0112 97.7859 27.8467C97.493 27.9303 97.2403 28.1172 97.0746 28.3728Z" fill="#DB4F02"/>
<path d="M99.9674 33.8747C101.21 33.8747 102.217 32.8675 102.217 31.6251C102.217 30.3827 101.21 29.3755 99.9674 29.3755C98.725 29.3755 97.7178 30.3827 97.7178 31.6251C97.7178 32.8675 98.725 33.8747 99.9674 33.8747Z" fill="#FCD83C"/>
<path d="M104.256 31.3553C103.982 32.4408 103.442 33.4409 102.685 34.2649C102.333 34.6178 101.916 34.8978 101.456 35.0889C100.996 35.2799 100.503 35.3783 100.005 35.3783C99.5074 35.3783 99.0144 35.2799 98.5546 35.0889C98.0948 34.8978 97.6773 34.6178 97.326 34.2649C96.974 33.9132 96.6948 33.4956 96.5044 33.0359C96.3139 32.5762 96.2158 32.0835 96.2158 31.5859C96.2158 31.0883 96.3139 30.5956 96.5044 30.136C96.6948 29.6763 96.974 29.2587 97.326 28.9069C97.5533 28.6832 97.802 28.4822 98.0685 28.3069C98.4573 28.0462 98.872 27.8264 99.306 27.6511C100.085 27.316 100.922 27.1374 101.77 27.1253C102.5 27.09 103.214 27.3448 103.757 27.8341C104.559 28.6369 104.612 30.0207 104.256 31.3553ZM102.216 31.6253C102.216 31.1803 102.084 30.7453 101.837 30.3753C101.59 30.0053 101.238 29.7169 100.827 29.5466C100.416 29.3763 99.9635 29.3317 99.527 29.4185C99.0906 29.5054 98.6897 29.7196 98.375 30.0343C98.0603 30.349 97.846 30.7499 97.7592 31.1863C97.6724 31.6228 97.717 32.0752 97.8873 32.4863C98.0576 32.8975 98.3459 33.2489 98.716 33.4961C99.086 33.7433 99.521 33.8753 99.966 33.8753C100.563 33.8753 101.135 33.6382 101.557 33.2163C101.979 32.7943 102.216 32.222 102.216 31.6253Z" fill="#FFFAE8"/>
<path d="M98.0773 33.5146C97.4305 32.8687 97.0392 32.0106 96.9759 31.0987C96.9125 30.1868 97.1814 29.2828 97.7327 28.5537C97.5908 28.6633 97.4554 28.7811 97.3273 28.9066C96.6168 29.6172 96.2177 30.581 96.2178 31.5859C96.2178 32.0834 96.3158 32.5761 96.5063 33.0358C96.6967 33.4955 96.9759 33.9131 97.3277 34.265C97.6796 34.6168 98.0973 34.8958 98.557 35.0862C99.0167 35.2766 99.5094 35.3746 100.007 35.3745C101.012 35.3745 101.976 34.9752 102.686 34.2646C102.814 34.1343 102.933 33.9965 103.045 33.8521C102.319 34.4138 101.412 34.6897 100.497 34.6275C99.5813 34.5653 98.7204 34.1693 98.0773 33.5146Z" fill="#FFF2C4"/>
<path d="M103.759 27.8348C103.216 27.3452 102.502 27.0902 101.772 27.1253C100.924 27.1371 100.087 27.3155 99.308 27.6503C98.874 27.8256 98.4593 28.0454 98.0705 28.3061C97.804 28.4814 97.5553 28.6824 97.328 28.9061C97.2041 29.0304 97.089 29.1631 96.9834 29.3033C97.091 29.2193 97.2013 29.1356 97.3209 29.0561C97.7097 28.7954 98.1244 28.5756 98.5584 28.4003C99.3372 28.0655 100.174 27.8871 101.022 27.8753C101.752 27.84 102.466 28.0947 103.009 28.584C103.811 29.3861 103.864 30.7699 103.508 32.1045C103.271 33.008 102.859 33.8562 102.295 34.6009C102.433 34.4972 102.564 34.3845 102.687 34.2634C103.444 33.4393 103.984 32.4393 104.258 31.3538C104.614 30.0206 104.561 28.6369 103.759 27.8348Z" fill="#FFF2C4"/>
<path d="M98.466 30.8749C98.4663 30.4622 98.5809 30.0576 98.7971 29.7061C98.506 29.8828 98.2588 30.1234 98.0742 30.4098C97.8897 30.6961 97.7727 31.0206 97.7319 31.3587C97.6912 31.6969 97.7279 32.0399 97.8392 32.3619C97.9505 32.6838 98.1335 32.9762 98.3744 33.2171C98.6153 33.4579 98.9077 33.6408 99.2297 33.752C99.5516 33.8632 99.8947 33.8998 100.233 33.859C100.571 33.8182 100.895 33.7011 101.182 33.5165C101.468 33.3319 101.709 33.0846 101.885 32.7934C101.545 33.0023 101.154 33.1165 100.755 33.1242C100.355 33.1319 99.9612 33.0329 99.6127 32.8374C99.2643 32.6419 98.9743 32.357 98.7727 32.012C98.5711 31.667 98.4653 31.2745 98.466 30.8749Z" fill="#F6A635"/>
<path d="M97.716 31.6249C97.7163 31.2122 97.8309 30.8076 98.0471 30.4561C97.756 30.6328 97.5088 30.8734 97.3242 31.1598C97.1397 31.4461 97.0227 31.7706 96.9819 32.1087C96.9412 32.4469 96.9779 32.7899 97.0892 33.1119C97.2005 33.4338 97.3835 33.7262 97.6244 33.9671C97.8653 34.2079 98.1577 34.3908 98.4797 34.502C98.8016 34.6132 99.1447 34.6498 99.4828 34.609C99.821 34.5682 100.145 34.4511 100.432 34.2665C100.718 34.0819 100.959 33.8346 101.135 33.5434C100.795 33.7523 100.404 33.8665 100.005 33.8742C99.6055 33.8819 99.2112 33.7829 98.8627 33.5874C98.5143 33.3919 98.2243 33.107 98.0227 32.762C97.8211 32.417 97.7153 32.0245 97.716 31.6249Z" fill="#FFEFB5"/>
<path d="M99.8408 29.8448C99.7637 29.8826 99.6965 29.9379 99.6445 30.0061C99.5924 30.0744 99.5569 30.1538 99.5408 30.2381C99.5327 30.408 99.5909 30.5743 99.7032 30.702C99.889 30.9449 100.145 31.1244 100.437 31.2161C100.547 31.2604 100.671 31.2604 100.781 31.2161C101.078 31.0661 101.095 30.3975 100.944 30.1324C100.829 29.9564 100.652 29.8297 100.448 29.7766C100.244 29.7234 100.028 29.7477 99.8408 29.8448Z" fill="#FFEF96"/>
<path d="M101.556 35.7878C101.476 35.8242 101.402 35.8729 101.337 35.9322L100.891 36.2985C100.836 36.338 100.789 36.3877 100.753 36.4448C100.73 36.4941 100.717 36.5482 100.718 36.6029C100.718 36.6577 100.731 36.7116 100.756 36.7605C100.805 36.8564 100.876 36.9389 100.964 37.0009C101.125 37.1232 101.312 37.2053 101.51 37.2402C101.578 37.2564 101.649 37.2536 101.716 37.2319C101.789 37.1949 101.851 37.1383 101.894 37.0684C102.066 36.8525 102.176 36.5944 102.214 36.321C102.232 36.1853 102.206 36.0473 102.139 35.9277C102.07 35.844 101.976 35.785 101.871 35.7598C101.766 35.7345 101.655 35.7444 101.556 35.7878Z" fill="#FFCBB0"/>
<path d="M85.7211 36.3126C85.6355 36.3063 85.5496 36.3217 85.4714 36.3572C85.4334 36.3752 85.4013 36.4034 85.3785 36.4387C85.3558 36.4741 85.3434 36.5151 85.3428 36.5571C85.3503 36.6636 85.4526 36.7363 85.5464 36.7918C85.6773 36.8668 85.8108 36.9418 85.933 37.0311C86.1004 37.1847 86.2883 37.3143 86.4914 37.4162C86.5399 37.4385 86.5948 37.4424 86.6459 37.4271C86.675 37.414 86.7007 37.3944 86.7209 37.3697C87.1949 36.8469 86.1651 36.3231 85.7211 36.3126ZM90.6959 40.8722C90.4883 40.6356 90.2531 40.4247 89.9954 40.2441L88.84 39.3658C88.7035 39.2369 88.5307 39.1529 88.345 39.1251C88.352 39.307 88.4001 39.485 88.4857 39.6457C88.5713 39.8063 88.6922 39.9455 88.8393 40.0528L90.8643 41.9421C91.0671 42.1314 91.51 42.2867 91.2768 41.8041C91.1186 41.4727 90.9237 41.1601 90.6959 40.8722ZM85.7211 32.9376C85.6355 32.9313 85.5496 32.9467 85.4714 32.9822C85.4334 33.0002 85.4013 33.0284 85.3785 33.0637C85.3558 33.0991 85.3434 33.1401 85.3428 33.1821C85.3503 33.2886 85.4526 33.3613 85.5464 33.4168C85.6773 33.4937 85.8108 33.5668 85.933 33.6561C86.1004 33.8097 86.2883 33.9393 86.4914 34.0412C86.5399 34.0635 86.5948 34.0674 86.6459 34.0521C86.675 34.039 86.7007 34.0194 86.7209 33.9947C87.1949 33.4719 86.1651 32.9481 85.7211 32.9376ZM89.5709 36.3722C89.3633 36.1356 89.1281 35.9247 88.8704 35.7441L87.715 34.8658C87.5785 34.7369 87.4057 34.6529 87.22 34.6251C87.227 34.807 87.2751 34.985 87.3607 35.1457C87.4463 35.3063 87.5672 35.4455 87.7143 35.5528L89.7393 37.4421C89.9421 37.6314 90.385 37.7867 90.1518 37.3041C89.9936 36.9727 89.7987 36.6601 89.5709 36.3722ZM92.7693 31.6719C92.6606 31.7362 92.5742 31.8323 92.5218 31.9473C92.4694 32.0622 92.4536 32.1905 92.4764 32.3147C92.5442 32.5421 92.6603 32.7521 92.8169 32.9304C93.0704 33.3749 93.2679 33.849 93.4049 34.3419C93.4529 34.4762 93.5324 34.6307 93.6565 34.6251C93.6927 34.6189 93.727 34.6045 93.7569 34.583C93.7867 34.5616 93.8112 34.5336 93.8286 34.5013C93.9385 34.3004 93.9867 34.0717 93.9674 33.8436C93.9612 33.2968 93.8485 32.7564 93.6355 32.2528C93.4829 31.8954 93.1578 31.4844 92.7693 31.6719ZM95.0193 33.5469C94.9106 33.6112 94.8242 33.7073 94.7718 33.8223C94.7194 33.9372 94.7036 34.0655 94.7264 34.1897C94.7942 34.4171 94.9103 34.6271 95.0669 34.8054C95.3204 35.2499 95.5179 35.724 95.6549 36.2169C95.7029 36.3512 95.7824 36.5057 95.9065 36.5001C95.9427 36.4939 95.977 36.4795 96.0069 36.458C96.0367 36.4366 96.0612 36.4086 96.0786 36.3763C96.1885 36.1754 96.2367 35.9467 96.2174 35.7186C96.2112 35.1718 96.0985 34.6315 95.8855 34.1278C95.7329 33.7704 95.4078 33.3594 95.0193 33.5469ZM92.9613 38.4249C92.8964 38.5083 92.8553 38.6077 92.8424 38.7126C92.8448 38.8085 92.8791 38.9008 92.9399 38.9751C92.9641 39.0167 92.9978 39.052 93.0383 39.078C93.0788 39.1041 93.1249 39.1202 93.1728 39.1251C93.2901 39.1198 93.3779 38.9912 93.4315 38.8626C93.518 38.6358 93.5693 38.3972 93.5838 38.1549C93.596 38.0578 93.596 37.9596 93.5838 37.8624C93.5418 37.5999 93.3895 37.5317 93.2838 37.7706C93.1917 37.996 93.084 38.2146 92.9613 38.4249ZM90.5193 27.1719C90.4106 27.2362 90.3242 27.3323 90.2718 27.4473C90.2194 27.5622 90.2036 27.6904 90.2264 27.8147C90.2942 28.0421 90.4103 28.2521 90.5669 28.4304C90.8204 28.8749 91.0179 29.349 91.1549 29.8419C91.2029 29.9762 91.2824 30.1307 91.4065 30.1251C91.4427 30.1189 91.477 30.1045 91.5069 30.083C91.5367 30.0616 91.5612 30.0336 91.5786 30.0013C91.6885 29.8004 91.7367 29.5717 91.7174 29.3436C91.7112 28.7968 91.5985 28.2564 91.3855 27.7528C91.2329 27.3954 90.9078 26.9844 90.5193 27.1719ZM90.7113 33.9249C90.6464 34.0083 90.6053 34.1077 90.5924 34.2126C90.5948 34.3085 90.6291 34.4008 90.6899 34.4751C90.7141 34.5167 90.7478 34.552 90.7883 34.578C90.8288 34.6041 90.8749 34.6202 90.9228 34.6251C91.0401 34.6198 91.1279 34.4912 91.1815 34.3626C91.268 34.1358 91.3193 33.8972 91.3338 33.6549C91.346 33.5578 91.346 33.4596 91.3338 33.3624C91.2918 33.0999 91.1395 33.0317 91.0338 33.2706C90.9417 33.496 90.834 33.7146 90.7113 33.9249ZM88.7361 29.7651C88.5884 29.7265 88.4315 29.7461 88.2978 29.8198C88.2542 29.8619 88.2239 29.9158 88.2105 29.9749C88.1972 30.034 88.2015 30.0957 88.2228 30.1524C88.2783 30.3684 88.4181 30.5649 88.4744 30.7798C88.4902 30.8894 88.5217 30.9961 88.5678 31.0967C88.5986 31.1505 88.6453 31.1935 88.7015 31.2197C88.7577 31.2459 88.8206 31.254 88.8816 31.2429C88.9311 31.2282 88.9766 31.2026 89.0148 31.1679C89.4633 30.7952 89.4906 29.8644 88.7361 29.7651ZM94.0938 27.6984C94.0222 27.8152 93.979 27.9471 93.9674 28.0836C93.9643 28.1168 93.97 28.1503 93.9839 28.1807C93.9938 28.1968 94.0079 28.2097 94.0248 28.2182C94.095 28.2468 94.1723 28.253 94.2462 28.2359C94.3201 28.2188 94.3868 28.1792 94.4373 28.1226C94.5614 28.0172 94.669 27.8728 94.7939 27.7701C95.0009 27.5998 95.2593 27.5387 95.4134 27.2739C95.4597 27.2028 95.4766 27.1165 95.4606 27.0332C95.446 26.9877 95.4184 26.9476 95.3811 26.9177C95.3388 26.8658 95.2855 26.8238 95.225 26.7949C95.1645 26.766 95.0984 26.7509 95.0314 26.7505C94.9644 26.7501 94.8981 26.7646 94.8374 26.7929C94.7766 26.8211 94.7228 26.8625 94.6799 26.9139C94.4359 27.1353 94.2368 27.4016 94.0938 27.6984ZM93.2661 29.2888C93.2311 29.3865 93.2148 29.4899 93.2181 29.5937C93.2288 29.7276 93.2733 29.8567 93.3475 29.9687C93.3764 30.0216 93.4158 30.0681 93.4634 30.1052C93.4836 30.1206 93.5088 30.1279 93.5341 30.1256C93.5593 30.1233 93.5828 30.1116 93.5999 30.0928C93.6273 30.0578 93.6487 30.0185 93.6633 29.9766L93.8613 29.4996C93.9295 29.3795 93.9654 29.2439 93.9654 29.1058C93.9654 28.9677 93.9295 28.8321 93.8613 28.7121C93.706 28.4912 93.5793 28.7436 93.4604 28.9198C93.3793 29.0335 93.3139 29.1576 93.2661 29.2888ZM95.1411 30.7888C95.1061 30.8865 95.0898 30.9899 95.0931 31.0937C95.1038 31.2276 95.1483 31.3567 95.2225 31.4687C95.2514 31.5216 95.2908 31.5681 95.3384 31.6052C95.3586 31.6206 95.3838 31.6279 95.4091 31.6256C95.4343 31.6233 95.4578 31.6116 95.4749 31.5928C95.5023 31.5578 95.5237 31.5185 95.5383 31.4766L95.7363 30.9996C95.8045 30.8795 95.8404 30.7439 95.8404 30.6058C95.8404 30.4677 95.8045 30.3321 95.7363 30.2121C95.581 29.9912 95.4543 30.2436 95.3354 30.4198C95.2543 30.5335 95.1889 30.6576 95.1411 30.7888Z" fill="#FFB15C"/>
<path d="M97.0734 42.5068C97.1574 42.4227 97.1766 42.3055 97.1161 42.245C97.0556 42.1846 96.9384 42.2037 96.8544 42.2877C96.7703 42.3718 96.7512 42.489 96.8117 42.5495C96.8721 42.6099 96.9893 42.5908 97.0734 42.5068Z" fill="#CC3A27"/>
<path d="M95.1984 43.6318C95.2824 43.5477 95.3016 43.4305 95.2411 43.37C95.1806 43.3096 95.0634 43.3287 94.9794 43.4127C94.8953 43.4968 94.8762 43.614 94.9367 43.6745C94.9971 43.7349 95.1143 43.7158 95.1984 43.6318Z" fill="#CC3A27"/>
<path d="M84.7003 32.3871C84.7844 32.3031 84.8035 32.1859 84.743 32.1254C84.6825 32.0649 84.5654 32.084 84.4813 32.1681C84.3972 32.2522 84.3781 32.3693 84.4386 32.4298C84.4991 32.4903 84.6163 32.4712 84.7003 32.3871Z" fill="#EA6524"/>
<path d="M97.4464 41.3823C97.5305 41.2982 97.5496 41.181 97.4891 41.1205C97.4286 41.0601 97.3115 41.0792 97.2274 41.1632C97.1433 41.2473 97.1242 41.3645 97.1847 41.4249C97.2452 41.4854 97.3624 41.4663 97.4464 41.3823Z" fill="#CC3A27"/>
<path d="M93.9644 26.4969C94.05 26.4969 94.1193 26.4005 94.1193 26.2817C94.1193 26.1628 94.05 26.0664 93.9644 26.0664C93.8789 26.0664 93.8096 26.1628 93.8096 26.2817C93.8096 26.4005 93.8789 26.4969 93.9644 26.4969Z" fill="#EA6524"/>
<path d="M84.5894 35.8719C84.675 35.8719 84.7443 35.7755 84.7443 35.6567C84.7443 35.5378 84.675 35.4414 84.5894 35.4414C84.5039 35.4414 84.4346 35.5378 84.4346 35.6567C84.4346 35.7755 84.5039 35.8719 84.5894 35.8719Z" fill="#91000C"/>
<path d="M84.2144 34.3719C84.3 34.3719 84.3693 34.2755 84.3693 34.1567C84.3693 34.0378 84.3 33.9414 84.2144 33.9414C84.1289 33.9414 84.0596 34.0378 84.0596 34.1567C84.0596 34.2755 84.1289 34.3719 84.2144 34.3719Z" fill="#EA6524"/>
<path d="M85.118 31.6802C85.1785 31.6198 85.1594 31.5026 85.0753 31.4185C84.9913 31.3345 84.8741 31.3154 84.8136 31.3758C84.7531 31.4363 84.7722 31.5535 84.8563 31.6376C84.9404 31.7216 85.0575 31.7407 85.118 31.6802Z" fill="#EA6524"/>
<path d="M92.9891 26.8057C93.0496 26.7453 93.0305 26.6281 92.9464 26.544C92.8624 26.46 92.7452 26.4408 92.6847 26.5013C92.6242 26.5618 92.6433 26.679 92.7274 26.763C92.8115 26.8471 92.9286 26.8662 92.9891 26.8057Z" fill="#EA6524"/>
<path d="M98.6141 42.1744C98.6746 42.1139 98.6555 41.9967 98.5714 41.9127C98.4874 41.8286 98.3702 41.8095 98.3097 41.87C98.2492 41.9305 98.2683 42.0476 98.3524 42.1317C98.4365 42.2158 98.5536 42.2349 98.6141 42.1744Z" fill="#CC3A27"/>
<path d="M92.0894 26.4969C92.175 26.4969 92.2443 26.4005 92.2443 26.2817C92.2443 26.1628 92.175 26.0664 92.0894 26.0664C92.0039 26.0664 91.9346 26.1628 91.9346 26.2817C91.9346 26.4005 92.0039 26.4969 92.0894 26.4969Z" fill="#EA6524"/>
<path d="M86.0894 40.7469C86.175 40.7469 86.2443 40.6505 86.2443 40.5317C86.2443 40.4128 86.175 40.3164 86.0894 40.3164C86.0039 40.3164 85.9346 40.4128 85.9346 40.5317C85.9346 40.6505 86.0039 40.7469 86.0894 40.7469Z" fill="#CC3A27"/>
<path d="M85.3394 39.2469C85.425 39.2469 85.4943 39.1505 85.4943 39.0317C85.4943 38.9128 85.425 38.8164 85.3394 38.8164C85.2539 38.8164 85.1846 38.9128 85.1846 39.0317C85.1846 39.1505 85.2539 39.2469 85.3394 39.2469Z" fill="#91000C"/>
<path d="M92.8598 41.7797C92.9806 41.6589 92.9423 41.4247 92.7742 41.2565C92.606 41.0884 92.3718 41.0501 92.251 41.1709C92.1302 41.2917 92.1685 41.5259 92.3366 41.6941C92.5048 41.8622 92.739 41.9005 92.8598 41.7797Z" fill="#91000C"/>
<path d="M86.1854 32.5241C86.3562 32.5241 86.4947 32.3313 86.4947 32.0936C86.4947 31.8558 86.3562 31.6631 86.1854 31.6631C86.0145 31.6631 85.876 31.8558 85.876 32.0936C85.876 32.3313 86.0145 32.5241 86.1854 32.5241Z" fill="#CC3A27"/>
<path d="M96.6854 43.7741C96.8562 43.7741 96.9947 43.5813 96.9947 43.3436C96.9947 43.1058 96.8562 42.9131 96.6854 42.9131C96.5145 42.9131 96.376 43.1058 96.376 43.3436C96.376 43.5813 96.5145 43.7741 96.6854 43.7741Z" fill="#CC3A27"/>
<path d="M93.3104 42.2741C93.4812 42.2741 93.6197 42.0813 93.6197 41.8436C93.6197 41.6058 93.4812 41.4131 93.3104 41.4131C93.1395 41.4131 93.001 41.6058 93.001 41.8436C93.001 42.0813 93.1395 42.2741 93.3104 42.2741Z" fill="#CC3A27"/>
<path d="M96.6964 36.1342C96.7805 36.0501 96.7996 35.933 96.7391 35.8725C96.6786 35.812 96.5615 35.8311 96.4774 35.9152C96.3933 35.9992 96.3742 36.1164 96.4347 36.1769C96.4952 36.2374 96.6124 36.2183 96.6964 36.1342Z" fill="#91000C"/>
<path d="M91.4484 36.8842C91.5324 36.8001 91.5516 36.683 91.4911 36.6225C91.4306 36.562 91.3134 36.5811 91.2294 36.6652C91.1453 36.7492 91.1262 36.8664 91.1867 36.9269C91.2471 36.9874 91.3643 36.9683 91.4484 36.8842Z" fill="#91000C"/>
<path d="M92.5714 29.0121C92.6555 28.9281 92.6746 28.8109 92.6141 28.7504C92.5536 28.6899 92.4365 28.709 92.3524 28.7931C92.2683 28.8772 92.2492 28.9943 92.3097 29.0548C92.3702 29.1153 92.4874 29.0962 92.5714 29.0121Z" fill="#CC3A27"/>
<path d="M98.0894 35.8719C98.175 35.8719 98.2443 35.7755 98.2443 35.6567C98.2443 35.5378 98.175 35.4414 98.0894 35.4414C98.0039 35.4414 97.9346 35.5378 97.9346 35.6567C97.9346 35.7755 98.0039 35.8719 98.0894 35.8719Z" fill="#CC3A27"/>
<path d="M98.4644 36.9969C98.55 36.9969 98.6193 36.9005 98.6193 36.7817C98.6193 36.6628 98.55 36.5664 98.4644 36.5664C98.3789 36.5664 98.3096 36.6628 98.3096 36.7817C98.3096 36.9005 98.3789 36.9969 98.4644 36.9969Z" fill="#91000C"/>
<path d="M96.7391 34.6773C96.7996 34.6168 96.7805 34.4997 96.6964 34.4156C96.6124 34.3315 96.4952 34.3124 96.4347 34.3729C96.3742 34.4334 96.3933 34.5506 96.4774 34.6346C96.5615 34.7187 96.6786 34.7378 96.7391 34.6773Z" fill="#CC3A27"/>
<path d="M87.5894 28.3719C87.675 28.3719 87.7443 28.2755 87.7443 28.1567C87.7443 28.0378 87.675 27.9414 87.5894 27.9414C87.5039 27.9414 87.4346 28.0378 87.4346 28.1567C87.4346 28.2755 87.5039 28.3719 87.5894 28.3719Z" fill="#EA6524"/>
<path d="M88.3394 29.1219C88.425 29.1219 88.4943 29.0255 88.4943 28.9067C88.4943 28.7878 88.425 28.6914 88.3394 28.6914C88.2539 28.6914 88.1846 28.7878 88.1846 28.9067C88.1846 29.0255 88.2539 29.1219 88.3394 29.1219Z" fill="#CC3A27"/>
<path d="M97.7387 37.2807C97.8595 37.1599 97.8212 36.9256 97.6531 36.7575C97.4849 36.5894 97.2507 36.551 97.1299 36.6719C97.0091 36.7927 97.0474 37.0269 97.2155 37.195C97.3837 37.3632 97.6179 37.4015 97.7387 37.2807Z" fill="#91000C"/>
<path d="M88.3598 42.5282C88.4806 42.4074 88.4423 42.1732 88.2742 42.0051C88.106 41.8369 87.8718 41.7986 87.751 41.9194C87.6302 42.0402 87.6685 42.2745 87.8366 42.4426C88.0048 42.6107 88.239 42.6491 88.3598 42.5282Z" fill="#CC3A27"/>
<path d="M86.5121 30.9179C86.7639 30.6661 86.8213 30.3155 86.6405 30.1346C86.4596 29.9537 86.1089 30.0112 85.8572 30.2629C85.6054 30.5147 85.548 30.8654 85.7288 31.0462C85.9097 31.2271 86.2604 31.1696 86.5121 30.9179Z" fill="#EA6524"/>
<path d="M88.7602 27.9189C89.0119 27.6671 89.0694 27.3164 88.8885 27.1356C88.7077 26.9547 88.357 27.0122 88.1052 27.2639C87.8535 27.5156 87.796 27.8663 87.9769 28.0472C88.1578 28.2281 88.5084 28.1706 88.7602 27.9189Z" fill="#EA6524"/>
<path d="M92.9354 44.0279C93.1731 44.0279 93.3659 43.8894 93.3659 43.7186C93.3659 43.5477 93.1731 43.4092 92.9354 43.4092C92.6976 43.4092 92.5049 43.5477 92.5049 43.7186C92.5049 43.8894 92.6976 44.0279 92.9354 44.0279Z" fill="#CC3A27"/>
<path d="M92.9354 28.0241C93.1062 28.0241 93.2447 27.8313 93.2447 27.5936C93.2447 27.3558 93.1062 27.1631 92.9354 27.1631C92.7645 27.1631 92.626 27.3558 92.626 27.5936C92.626 27.8313 92.7645 28.0241 92.9354 28.0241Z" fill="#CC3A27"/>
<path d="M92.736 26.3638C92.8028 26.4327 92.8401 26.5248 92.8401 26.6207C92.8401 26.7166 92.8028 26.8087 92.736 26.8776L92.2185 27.3951C92.1496 27.4618 92.0575 27.4992 91.9616 27.4992C91.8657 27.4992 91.7736 27.4618 91.7047 27.3951L91.446 27.1363C91.3792 27.0675 91.3419 26.9753 91.3419 26.8794C91.3419 26.7835 91.3792 26.6914 91.446 26.6226L91.9635 26.1051C92.0323 26.0383 92.1245 26.001 92.2204 26.001C92.3163 26.001 92.4084 26.0383 92.4772 26.1051L92.736 26.3638ZM86.361 31.1226C86.4283 31.1911 86.466 31.2834 86.466 31.3794C86.466 31.4755 86.4283 31.5677 86.361 31.6363L86.1022 31.8951C86.0334 31.9618 85.9413 31.9992 85.8454 31.9992C85.7495 31.9992 85.6573 31.9618 85.5885 31.8951L85.071 31.3776C85.021 31.3267 84.9869 31.2624 84.9729 31.1924C84.959 31.1225 84.9657 31.05 84.9922 30.9838C85.0113 30.9396 85.038 30.8989 85.071 30.8638L85.3297 30.6051C85.3986 30.5383 85.4907 30.501 85.5866 30.501C85.6825 30.501 85.7746 30.5383 85.8435 30.6051L86.361 31.1226Z" fill="#7EB04F"/>
<path d="M91.3408 32.75H90.5908C90.3837 32.75 90.2158 32.9179 90.2158 33.125V33.5C90.2158 33.7071 90.3837 33.875 90.5908 33.875H91.3408C91.5479 33.875 91.7158 33.7071 91.7158 33.5V33.125C91.7158 32.9179 91.5479 32.75 91.3408 32.75Z" fill="#7EB04F"/>
<path d="M100.987 37.6138C101.054 37.6827 101.091 37.7748 101.091 37.8707C101.091 37.9666 101.054 38.0587 100.987 38.1276L100.469 38.6451C100.401 38.7118 100.308 38.7492 100.212 38.7492C100.117 38.7492 100.024 38.7118 99.9556 38.6451L99.6969 38.3863C99.6301 38.3175 99.5928 38.2253 99.5928 38.1294C99.5928 38.0335 99.6301 37.9414 99.6969 37.8726L100.214 37.3551C100.283 37.2883 100.375 37.251 100.471 37.251C100.567 37.251 100.659 37.2883 100.728 37.3551L100.987 37.6138ZM93.2169 38.0001V38.3751C93.2169 38.4745 93.1774 38.5699 93.107 38.6402C93.0367 38.7106 92.9413 38.7501 92.8419 38.7501H92.0919C91.9924 38.7501 91.897 38.7106 91.8267 38.6402C91.7564 38.5699 91.7169 38.4745 91.7169 38.3751V38.0001C91.7169 37.9006 91.7564 37.8052 91.8267 37.7349C91.897 37.6646 91.9924 37.6251 92.0919 37.6251H92.8419C92.9413 37.6251 93.0367 37.6646 93.107 37.7349C93.1774 37.8052 93.2169 37.9006 93.2169 38.0001ZM97.6119 42.1138C97.6786 42.1827 97.716 42.2748 97.716 42.3707C97.716 42.4666 97.6786 42.5587 97.6119 42.6276L97.0944 43.1451C97.0255 43.2118 96.9334 43.2492 96.8375 43.2492C96.7416 43.2492 96.6495 43.2118 96.5806 43.1451L96.3219 42.8863C96.2551 42.8175 96.2178 42.7253 96.2178 42.6294C96.2178 42.5335 96.2551 42.4414 96.3219 42.3726L96.8394 41.8551C96.9082 41.7883 97.0003 41.751 97.0962 41.751C97.1921 41.751 97.2843 41.7883 97.3531 41.8551L97.6119 42.1138ZM93.4869 43.1226C93.5536 43.1914 93.591 43.2835 93.591 43.3794C93.591 43.4753 93.5536 43.5675 93.4869 43.6363L93.2281 43.8951C93.1595 43.9624 93.0673 44.0001 92.9712 44.0001C92.8752 44.0001 92.7829 43.9624 92.7144 43.8951L92.1969 43.3776C92.1469 43.3267 92.1128 43.2624 92.0988 43.1924C92.0848 43.1225 92.0915 43.05 92.1181 42.9838C92.1372 42.9396 92.1639 42.8989 92.1969 42.8638L92.4556 42.6051C92.5245 42.5383 92.6166 42.501 92.7125 42.501C92.8084 42.501 92.9005 42.5383 92.9694 42.6051L93.4869 43.1226ZM88.6119 36.7476C88.6786 36.8164 88.716 36.9085 88.716 37.0044C88.716 37.1003 88.6786 37.1925 88.6119 37.2613L88.3531 37.5201C88.2843 37.5868 88.1921 37.6242 88.0962 37.6242C88.0003 37.6242 87.9082 37.5868 87.8394 37.5201L87.3219 37.0026C87.2551 36.9337 87.2178 36.8416 87.2178 36.7457C87.2178 36.6498 87.2551 36.5577 87.3219 36.4888L87.5806 36.2301C87.6495 36.1633 87.7416 36.126 87.8375 36.126C87.9334 36.126 88.0255 36.1633 88.0944 36.2301L88.6119 36.7476Z" fill="#7EB04F"/>
<path d="M93.0894 43.5203L92.5719 43.0028C92.5162 42.9444 92.4816 42.8692 92.4733 42.789C92.465 42.7088 92.4836 42.6281 92.5261 42.5596C92.5009 42.572 92.4772 42.5873 92.4556 42.6053L92.1969 42.8641C92.1301 42.9329 92.0928 43.025 92.0928 43.1209C92.0928 43.2168 92.1301 43.309 92.1969 43.3778L92.7144 43.8953C92.7832 43.9621 92.8753 43.9994 92.9712 43.9994C93.0671 43.9994 93.1593 43.9621 93.2281 43.8953L93.4869 43.6366C93.5049 43.615 93.5202 43.5913 93.5326 43.5661C93.4641 43.6086 93.3834 43.6272 93.3032 43.6189C93.223 43.6106 93.1478 43.576 93.0894 43.5203ZM88.2144 37.1453L87.6969 36.6278C87.6412 36.5694 87.6066 36.4942 87.5983 36.414C87.59 36.3338 87.6086 36.2531 87.6511 36.1846C87.6259 36.197 87.6022 36.2123 87.5806 36.2303L87.3219 36.4891C87.2551 36.5579 87.2178 36.65 87.2178 36.7459C87.2178 36.8418 87.2551 36.934 87.3219 37.0028L87.8394 37.5203C87.9082 37.5871 88.0003 37.6244 88.0962 37.6244C88.1921 37.6244 88.2843 37.5871 88.3531 37.5203L88.6119 37.2616C88.6299 37.24 88.6452 37.2163 88.6576 37.1911C88.5891 37.2336 88.5084 37.2522 88.4282 37.2439C88.348 37.2356 88.2728 37.201 88.2144 37.1453ZM85.9644 31.5203L85.4469 31.0028C85.3912 30.9444 85.3566 30.8692 85.3483 30.789C85.34 30.7088 85.3586 30.6281 85.4011 30.5596C85.3759 30.572 85.3522 30.5873 85.3306 30.6053L85.0719 30.8641C85.0051 30.9329 84.9678 31.025 84.9678 31.1209C84.9678 31.2168 85.0051 31.309 85.0719 31.3778L85.5894 31.8953C85.6582 31.9621 85.7503 31.9994 85.8462 31.9994C85.9421 31.9994 86.0343 31.9621 86.1031 31.8953L86.3619 31.6366C86.3799 31.615 86.3952 31.5913 86.4076 31.5661C86.3391 31.6086 86.2584 31.6272 86.1782 31.6189C86.098 31.6106 86.0228 31.576 85.9644 31.5203ZM97.6119 42.1141L97.3531 41.8553C97.3315 41.8373 97.3078 41.822 97.2826 41.8096C97.3252 41.8781 97.3437 41.9588 97.3355 42.039C97.3272 42.1192 97.2925 42.1944 97.2369 42.2528L96.7194 42.7703C96.661 42.826 96.5858 42.8606 96.5056 42.8689C96.4253 42.8772 96.3446 42.8586 96.2761 42.8161C96.2885 42.8413 96.3039 42.865 96.3219 42.8866L96.5806 43.1453C96.6495 43.2121 96.7416 43.2494 96.8375 43.2494C96.9334 43.2494 97.0255 43.2121 97.0944 43.1453L97.6119 42.6278C97.6786 42.559 97.716 42.4668 97.716 42.3709C97.716 42.275 97.6786 42.1829 97.6119 42.1141ZM100.987 37.6141L100.728 37.3553C100.707 37.3373 100.683 37.322 100.658 37.3096C100.7 37.3781 100.719 37.4588 100.71 37.539C100.702 37.6192 100.668 37.6944 100.612 37.7528L100.094 38.2703C100.036 38.326 99.9608 38.3606 99.8806 38.3689C99.8003 38.3772 99.7196 38.3586 99.6511 38.3161C99.6635 38.3413 99.6789 38.365 99.6969 38.3866L99.9556 38.6453C100.024 38.7121 100.117 38.7494 100.212 38.7494C100.308 38.7494 100.401 38.7121 100.469 38.6453L100.987 38.1278C101.054 38.059 101.091 37.9668 101.091 37.8709C101.091 37.775 101.054 37.6829 100.987 37.6141ZM92.7369 26.3641L92.4781 26.1053C92.4565 26.0873 92.4328 26.072 92.4076 26.0596C92.4502 26.1281 92.4687 26.2088 92.4605 26.289C92.4522 26.3692 92.4175 26.4444 92.3619 26.5028L91.8444 27.0203C91.786 27.076 91.7108 27.1106 91.6306 27.1189C91.5503 27.1272 91.4696 27.1086 91.4011 27.0661C91.4135 27.0913 91.4289 27.115 91.4469 27.1366L91.7056 27.3953C91.7745 27.4621 91.8666 27.4994 91.9625 27.4994C92.0584 27.4994 92.1505 27.4621 92.2194 27.3953L92.7369 26.8778C92.8036 26.809 92.841 26.7168 92.841 26.6209C92.841 26.525 92.8036 26.4329 92.7369 26.3641ZM92.8419 38.3753H92.0919C91.9924 38.3753 91.897 38.3358 91.8267 38.2655C91.7564 38.1952 91.7169 38.0998 91.7169 38.0003V38.3753C91.7169 38.4748 91.7564 38.5702 91.8267 38.6405C91.897 38.7108 91.9924 38.7503 92.0919 38.7503H92.8419C92.9413 38.7503 93.0367 38.7108 93.107 38.6405C93.1774 38.5702 93.2169 38.4748 93.2169 38.3753V38.0003C93.2169 38.0998 93.1774 38.1952 93.107 38.2655C93.0367 38.3358 92.9413 38.3753 92.8419 38.3753ZM91.3419 33.5003H90.5919C90.4924 33.5003 90.397 33.4608 90.3267 33.3905C90.2564 33.3202 90.2169 33.2248 90.2169 33.1253V33.5003C90.2169 33.5998 90.2564 33.6952 90.3267 33.7655C90.397 33.8358 90.4924 33.8753 90.5919 33.8753H91.3419C91.4413 33.8753 91.5367 33.8358 91.607 33.7655C91.6774 33.6952 91.7169 33.5998 91.7169 33.5003V33.1253C91.7169 33.2248 91.6774 33.3202 91.607 33.3905C91.5367 33.4608 91.4413 33.5003 91.3419 33.5003Z" fill="#5F873B"/>
<path d="M97.5303 35.375C97.8409 35.375 98.0928 35.2911 98.0928 35.1875C98.0928 35.0839 97.8409 35 97.5303 35C97.2196 35 96.9678 35.0839 96.9678 35.1875C96.9678 35.2911 97.2196 35.375 97.5303 35.375Z" fill="#689441"/>
<path d="M94.852 37.4177C94.9482 37.3793 94.9638 37.1922 94.8869 36.9999C94.8099 36.8076 94.6697 36.6829 94.5735 36.7214C94.4774 36.7598 94.4618 36.9469 94.5387 37.1392C94.6156 37.3315 94.7559 37.4562 94.852 37.4177Z" fill="#689441"/>
<path d="M98.602 38.5442C98.6982 38.5058 98.7138 38.3187 98.6369 38.1264C98.5599 37.9341 98.4197 37.8094 98.3235 37.8478C98.2274 37.8863 98.2118 38.0734 98.2887 38.2657C98.3656 38.458 98.5059 38.5827 98.602 38.5442Z" fill="#689441"/>
<path d="M97.4809 31.7927C97.5771 31.7543 97.5927 31.5672 97.5158 31.3749C97.4389 31.1826 97.2986 31.0579 97.2024 31.0964C97.1063 31.1348 97.0907 31.3219 97.1676 31.5142C97.2445 31.7065 97.3848 31.8312 97.4809 31.7927Z" fill="#689441"/>
<path d="M90.3869 38.2642C90.4638 38.0719 90.4482 37.8849 90.352 37.8464C90.2559 37.808 90.1156 37.9327 90.0387 38.125C89.9618 38.3173 89.9774 38.5043 90.0735 38.5428C90.1697 38.5812 90.3099 38.4565 90.3869 38.2642Z" fill="#689441"/>
<path d="M97.8908 33.3922C97.9677 33.1999 97.9521 33.0128 97.8559 32.9743C97.7598 32.9359 97.6195 33.0606 97.5426 33.2529C97.4657 33.4452 97.4813 33.6322 97.5774 33.6707C97.6736 33.7092 97.8139 33.5845 97.8908 33.3922Z" fill="#689441"/>
<path d="M88.1349 41.2637C88.2118 41.0714 88.1962 40.8844 88.1001 40.8459C88.0039 40.8075 87.8636 40.9322 87.7867 41.1245C87.7098 41.3168 87.7254 41.5038 87.8216 41.5423C87.9177 41.5807 88.058 41.456 88.1349 41.2637Z" fill="#689441"/>
<path d="M90.3908 31.5132C90.4677 31.321 90.4521 31.1339 90.3559 31.0954C90.2598 31.057 90.1195 31.1817 90.0426 31.374C89.9657 31.5663 89.9813 31.7533 90.0774 31.7918C90.1736 31.8303 90.3139 31.7055 90.3908 31.5132Z" fill="#689441"/>
<path d="M89.229 33.2898C89.3251 33.2514 89.3407 33.0643 89.2638 32.872C89.1869 32.6797 89.0466 32.555 88.9505 32.5935C88.8543 32.6319 88.8387 32.819 88.9156 33.0113C88.9925 33.2036 89.1328 33.3283 89.229 33.2898Z" fill="#689441"/>
<path d="M86.6388 33.3863C86.7157 33.194 86.7001 33.0069 86.604 32.9685C86.5078 32.93 86.3675 33.0547 86.2906 33.247C86.2137 33.4393 86.2293 33.6264 86.3255 33.6648C86.4216 33.7033 86.5619 33.5786 86.6388 33.3863Z" fill="#689441"/>
<path d="M87.727 38.5398C87.8232 38.5014 87.8388 38.3143 87.7619 38.122C87.6849 37.9297 87.5447 37.805 87.4485 37.8435C87.3524 37.8819 87.3368 38.069 87.4137 38.2613C87.4906 38.4536 87.6309 38.5783 87.727 38.5398Z" fill="#689441"/>
<path d="M84.7619 35.6363C84.8388 35.444 84.8232 35.2569 84.727 35.2185C84.6309 35.18 84.4906 35.3047 84.4137 35.497C84.3368 35.6893 84.3524 35.8764 84.4485 35.9148C84.5447 35.9533 84.6849 35.8286 84.7619 35.6363Z" fill="#689441"/>
<path d="M94.1408 30.3897C94.2177 30.1974 94.2021 30.0104 94.1059 29.9719C94.0098 29.9334 93.8695 30.0582 93.7926 30.2505C93.7157 30.4427 93.7313 30.6298 93.8274 30.6683C93.9236 30.7067 94.0639 30.582 94.1408 30.3897Z" fill="#689441"/>
<path d="M98.785 39.0701C99.0047 38.8504 99.1234 38.6129 99.0501 38.5397C98.9769 38.4665 98.7395 38.5852 98.5198 38.8049C98.3001 39.0246 98.1814 39.262 98.2547 39.3352C98.3279 39.4084 98.5653 39.2897 98.785 39.0701Z" fill="#689441"/>
<path d="M90.91 41.3196C91.1297 41.0999 91.2484 40.8625 91.1751 40.7892C91.1019 40.716 90.8645 40.8347 90.6448 41.0544C90.4251 41.2741 90.3064 41.5115 90.3797 41.5847C90.4529 41.658 90.6903 41.5392 90.91 41.3196Z" fill="#689441"/>
<path d="M97.1751 41.5848C97.2484 41.5116 97.1297 41.2741 96.91 41.0545C96.6903 40.8348 96.4529 40.7161 96.3797 40.7893C96.3064 40.8625 96.4251 41.1 96.6448 41.3196C96.8645 41.5393 97.1019 41.658 97.1751 41.5848Z" fill="#689441"/>
<path d="M93.0303 29C93.1338 29 93.2178 28.7482 93.2178 28.4375C93.2178 28.1268 93.1338 27.875 93.0303 27.875C92.9267 27.875 92.8428 28.1268 92.8428 28.4375C92.8428 28.7482 92.9267 29 93.0303 29Z" fill="#689441"/>
<path d="M87.4271 29.5853C87.5003 29.5121 87.3816 29.2746 87.1619 29.0549C86.9423 28.8353 86.7048 28.7166 86.6316 28.7898C86.5584 28.863 86.6771 29.1004 86.8968 29.3201C87.1164 29.5398 87.3539 29.6585 87.4271 29.5853Z" fill="#689441"/>
<path d="M97.66 36.4455C97.8797 36.2259 97.9984 35.9884 97.9251 35.9152C97.8519 35.842 97.6145 35.9607 97.3948 36.1804C97.1751 36.4 97.0564 36.6375 97.1297 36.7107C97.2029 36.7839 97.4403 36.6652 97.66 36.4455Z" fill="#689441"/>
</g>
<path d="M50.9783 70.552L53.7943 63.608C53.9543 63.2133 54.0663 62.904 54.1303 62.68C54.1943 62.456 54.2263 62.2533 54.2263 62.072C54.2263 61.784 54.1357 61.5813 53.9543 61.464C53.7837 61.3467 53.4583 61.288 52.9783 61.288V60.68H56.8663V61.288C56.621 61.32 56.4077 61.3627 56.2263 61.416C56.0557 61.4693 55.901 61.544 55.7623 61.64C55.6343 61.736 55.517 61.864 55.4103 62.024C55.3143 62.1733 55.2183 62.36 55.1223 62.584L50.7863 73.16H50.2263L46.0983 63.192C45.9597 62.872 45.821 62.5947 45.6823 62.36C45.5543 62.1253 45.4103 61.9333 45.2503 61.784C45.0903 61.6347 44.909 61.5227 44.7063 61.448C44.5037 61.3733 44.2637 61.3253 43.9863 61.304V60.68H49.2023V61.304C48.9037 61.304 48.6583 61.32 48.4663 61.352C48.285 61.3733 48.141 61.416 48.0343 61.48C47.9277 61.5333 47.853 61.6027 47.8103 61.688C47.7677 61.7733 47.7463 61.8693 47.7463 61.976C47.7463 62.1253 47.773 62.3013 47.8263 62.504C47.8797 62.696 47.981 62.9787 48.1303 63.352L50.9783 70.552ZM63.7495 71.512C62.8428 72.6107 61.7175 73.16 60.3735 73.16C59.7441 73.16 59.1735 73.0587 58.6615 72.856C58.1495 72.6427 57.7068 72.3493 57.3335 71.976C56.9708 71.592 56.6881 71.1387 56.4855 70.616C56.2828 70.0827 56.1815 69.496 56.1815 68.856C56.1815 68.2053 56.2881 67.6027 56.5015 67.048C56.7148 66.4933 57.0135 66.0187 57.3975 65.624C57.7921 65.2293 58.2561 64.92 58.7895 64.696C59.3335 64.472 59.9255 64.36 60.5655 64.36C61.6001 64.36 62.4001 64.6427 62.9655 65.208C63.5308 65.7627 63.8135 66.5627 63.8135 67.608C63.8135 67.7573 63.7815 67.848 63.7175 67.88C63.6641 67.912 63.5308 67.928 63.3175 67.928H58.0535C58.0321 68.0133 58.0161 68.12 58.0055 68.248C57.9948 68.3653 57.9895 68.4987 57.9895 68.648C57.9895 69.2027 58.0535 69.7093 58.1815 70.168C58.3201 70.616 58.5121 71 58.7575 71.32C59.0135 71.64 59.3121 71.8907 59.6535 72.072C60.0055 72.2427 60.3948 72.328 60.8215 72.328C61.2695 72.328 61.6855 72.232 62.0695 72.04C62.4535 71.8373 62.8481 71.512 63.2535 71.064L63.7495 71.512ZM61.1095 67.192C61.3228 67.192 61.4935 67.1867 61.6215 67.176C61.7495 67.1653 61.8455 67.144 61.9095 67.112C61.9735 67.08 62.0161 67.0373 62.0375 66.984C62.0588 66.92 62.0695 66.84 62.0695 66.744C62.0695 66.2533 61.9095 65.864 61.5895 65.576C61.2801 65.2773 60.8535 65.128 60.3095 65.128C59.1575 65.128 58.4428 65.816 58.1655 67.192H61.1095ZM68.9533 69.56C69.4013 69.56 69.748 69.3573 69.9933 68.952C70.2493 68.5467 70.3773 67.976 70.3773 67.24C70.3773 66.5147 70.2493 65.9547 69.9933 65.56C69.748 65.1547 69.396 64.952 68.9373 64.952C68.4787 64.952 68.1107 65.1547 67.8333 65.56C67.5667 65.9653 67.4333 66.52 67.4333 67.224C67.4333 67.928 67.572 68.4933 67.8493 68.92C68.1267 69.3467 68.4947 69.56 68.9533 69.56ZM68.0733 71.432C68.3293 71.4533 68.564 71.4747 68.7773 71.496C68.9907 71.5173 69.1987 71.5387 69.4013 71.56C69.6147 71.5813 69.8227 71.608 70.0253 71.64C70.2387 71.672 70.468 71.704 70.7133 71.736C71.4813 71.8533 72.0947 72.152 72.5533 72.632C73.0227 73.1013 73.2573 73.6933 73.2573 74.408C73.2573 75.304 72.9 75.9867 72.1853 76.456C71.4813 76.9253 70.4573 77.16 69.1133 77.16C68.516 77.16 67.9667 77.1067 67.4653 77C66.9747 76.8933 66.5533 76.7387 66.2013 76.536C65.8493 76.344 65.572 76.1093 65.3693 75.832C65.1773 75.5547 65.0813 75.2507 65.0813 74.92C65.0813 74.696 65.1187 74.488 65.1933 74.296C65.268 74.104 65.3693 73.9333 65.4973 73.784C65.6253 73.6453 65.7747 73.5333 65.9453 73.448C66.1267 73.3627 66.3133 73.32 66.5053 73.32C66.868 73.32 67.1933 73.432 67.4813 73.656C67.1933 73.72 66.9587 73.8747 66.7773 74.12C66.596 74.376 66.5053 74.664 66.5053 74.984C66.5053 75.4533 66.7347 75.816 67.1933 76.072C67.6627 76.328 68.324 76.456 69.1773 76.456C71.0013 76.456 71.9133 75.896 71.9133 74.776C71.9133 74.3493 71.7693 73.992 71.4813 73.704C71.1933 73.4267 70.852 73.2613 70.4573 73.208C70.2013 73.176 69.9347 73.1387 69.6573 73.096C69.3907 73.064 69.124 73.032 68.8573 73C68.6013 72.968 68.3613 72.9413 68.1373 72.92C67.9133 72.8987 67.732 72.8773 67.5933 72.856C66.996 72.792 66.5427 72.632 66.2333 72.376C65.924 72.12 65.7693 71.768 65.7693 71.32C65.7693 70.9467 65.924 70.616 66.2333 70.328C66.5427 70.04 66.932 69.8587 67.4013 69.784V69.72C67.1667 69.624 66.948 69.4907 66.7453 69.32C66.5427 69.1387 66.3667 68.936 66.2173 68.712C66.0787 68.488 65.9667 68.248 65.8813 67.992C65.796 67.7253 65.7533 67.4533 65.7533 67.176C65.7533 66.7707 65.828 66.3973 65.9773 66.056C66.1373 65.7147 66.356 65.4213 66.6333 65.176C66.9213 64.92 67.2573 64.7227 67.6413 64.584C68.0253 64.4347 68.4467 64.36 68.9053 64.36C69.3747 64.36 69.8173 64.4347 70.2333 64.584C70.6493 64.7227 71.0067 64.9307 71.3053 65.208C71.668 64.9093 71.988 64.696 72.2653 64.568C72.5427 64.4293 72.804 64.36 73.0493 64.36C73.4333 64.36 73.7373 64.4507 73.9613 64.632C74.196 64.8027 74.3133 65.0373 74.3133 65.336C74.3133 65.5173 74.2493 65.6613 74.1213 65.768C74.004 65.8747 73.8547 65.928 73.6733 65.928C73.524 65.928 73.4013 65.9013 73.3053 65.848C73.2093 65.7947 73.1187 65.7413 73.0333 65.688C72.9587 65.624 72.8787 65.5653 72.7933 65.512C72.708 65.4587 72.6013 65.432 72.4733 65.432C72.2173 65.432 71.956 65.5227 71.6893 65.704C71.9453 66.0987 72.0733 66.5947 72.0733 67.192C72.0733 68.0987 71.7907 68.8133 71.2253 69.336C70.66 69.848 69.812 70.1467 68.6813 70.232C68.0307 70.2853 67.5773 70.3547 67.3213 70.44C67.0653 70.5253 66.9373 70.68 66.9373 70.904C66.9373 71.0747 67.0333 71.2027 67.2253 71.288C67.4173 71.3627 67.7 71.4107 68.0733 71.432ZM79.7315 68.264C79.1235 68.4987 78.6061 68.728 78.1795 68.952C77.7635 69.176 77.4275 69.4 77.1715 69.624C76.9155 69.848 76.7288 70.072 76.6115 70.296C76.5048 70.52 76.4515 70.7493 76.4515 70.984C76.4515 71.336 76.5688 71.624 76.8035 71.848C77.0381 72.072 77.3475 72.184 77.7315 72.184C78.0088 72.184 78.2648 72.1147 78.4995 71.976C78.7448 71.8373 78.9581 71.6507 79.1395 71.416C79.3208 71.1707 79.4648 70.888 79.5715 70.568C79.6781 70.2373 79.7315 69.8907 79.7315 69.528V68.264ZM79.7315 67.576V66.92C79.7315 65.6187 79.1768 64.968 78.0675 64.968C77.8861 64.968 77.7315 64.984 77.6035 65.016C77.4755 65.048 77.3688 65.1013 77.2835 65.176C77.1981 65.2507 77.1181 65.3573 77.0435 65.496C76.9795 65.6347 76.9155 65.8053 76.8515 66.008C76.7341 66.3173 76.6168 66.5253 76.4995 66.632C76.3928 66.728 76.2328 66.776 76.0195 66.776C75.4861 66.776 75.2195 66.5093 75.2195 65.976C75.2195 65.464 75.4915 65.0693 76.0355 64.792C76.5795 64.504 77.3528 64.36 78.3555 64.36C79.4221 64.36 80.1795 64.552 80.6275 64.936C81.0755 65.3093 81.2995 65.9493 81.2995 66.856V70.44C81.2995 71.656 81.5395 72.264 82.0195 72.264C82.1688 72.264 82.3128 72.248 82.4515 72.216C82.5901 72.1733 82.7075 72.072 82.8035 71.912L83.0275 72.296C82.8995 72.5413 82.6648 72.7493 82.3235 72.92C81.9821 73.08 81.6248 73.16 81.2515 73.16C80.7821 73.16 80.4301 73.0107 80.1955 72.712C79.9715 72.4133 79.8595 71.992 79.8595 71.448H79.7795C79.5021 71.9707 79.1181 72.3867 78.6275 72.696C78.1368 72.9947 77.5928 73.144 76.9955 73.144C76.3235 73.144 75.7955 72.9733 75.4115 72.632C75.0275 72.2907 74.8355 71.832 74.8355 71.256C74.8355 71 74.8781 70.7547 74.9635 70.52C75.0595 70.2853 75.2088 70.0613 75.4115 69.848C75.6141 69.6347 75.8808 69.4267 76.2115 69.224C76.5421 69.0107 76.9475 68.7973 77.4275 68.584L79.7315 67.576ZM86.4628 70.488C86.4628 70.9253 86.4735 71.272 86.4948 71.528C86.5162 71.7733 86.5695 71.9653 86.6548 72.104C86.7508 72.232 86.8842 72.3173 87.0548 72.36C87.2362 72.4027 87.4815 72.4347 87.7908 72.456V73H83.5988V72.456C83.8975 72.4347 84.1322 72.4027 84.3028 72.36C84.4842 72.3173 84.6228 72.232 84.7188 72.104C84.8148 71.976 84.8735 71.7947 84.8948 71.56C84.9268 71.3253 84.9428 71.0053 84.9428 70.6V68.472C84.9428 67.2027 84.9108 66.4293 84.8468 66.152C84.8148 66.0133 84.7722 65.9013 84.7188 65.816C84.6762 65.72 84.6068 65.6507 84.5108 65.608C84.4148 65.5547 84.2922 65.5227 84.1428 65.512C83.9935 65.4907 83.8015 65.48 83.5668 65.48V64.968L86.1268 64.36L86.3188 65.944H86.3828C86.7882 65.4427 87.2628 65.0533 87.8068 64.776C88.3508 64.4987 88.9428 64.36 89.5828 64.36C90.0735 64.36 90.5215 64.44 90.9268 64.6C91.3322 64.76 91.6415 64.9787 91.8548 65.256C92.0362 65.5013 92.1642 65.8213 92.2388 66.216C92.3135 66.6 92.3508 67.1333 92.3508 67.816V70.488C92.3508 70.9253 92.3615 71.272 92.3828 71.528C92.4148 71.7733 92.4735 71.9653 92.5588 72.104C92.6442 72.232 92.7722 72.3173 92.9428 72.36C93.1242 72.4027 93.3588 72.4347 93.6468 72.456V73H89.5028V72.456C89.8015 72.4453 90.0362 72.4187 90.2068 72.376C90.3882 72.3227 90.5215 72.232 90.6068 72.104C90.7028 71.976 90.7615 71.7947 90.7828 71.56C90.8148 71.3147 90.8308 70.9947 90.8308 70.6V68.488C90.8308 67.88 90.7988 67.368 90.7348 66.952C90.6708 66.536 90.5642 66.2 90.4148 65.944C90.2762 65.688 90.0895 65.5067 89.8548 65.4C89.6202 65.2827 89.3375 65.224 89.0068 65.224C88.5268 65.224 88.0842 65.352 87.6788 65.608C87.2842 65.8533 86.9748 66.1947 86.7508 66.632C86.6975 66.7387 86.6495 66.84 86.6068 66.936C86.5748 67.032 86.5482 67.144 86.5268 67.272C86.5055 67.4 86.4895 67.5493 86.4788 67.72C86.4682 67.88 86.4628 68.088 86.4628 68.344V70.488ZM101.992 65.672H102.056C102.397 65.2667 102.765 64.9467 103.16 64.712C103.555 64.4773 104.013 64.36 104.536 64.36C105.144 64.36 105.699 64.472 106.2 64.696C106.712 64.9093 107.155 65.2133 107.528 65.608C107.901 66.0027 108.189 66.472 108.392 67.016C108.605 67.5493 108.712 68.136 108.712 68.776C108.712 69.4267 108.605 70.024 108.392 70.568C108.179 71.1013 107.885 71.56 107.512 71.944C107.139 72.328 106.696 72.6267 106.184 72.84C105.672 73.0533 105.117 73.16 104.52 73.16C104.029 73.16 103.581 73.08 103.176 72.92C102.781 72.7493 102.408 72.4773 102.056 72.104V74.44C102.056 74.8667 102.077 75.208 102.12 75.464C102.163 75.72 102.248 75.9173 102.376 76.056C102.504 76.1947 102.685 76.2907 102.92 76.344C103.165 76.3973 103.485 76.4293 103.88 76.44V77H98.9518V76.44C99.2718 76.4293 99.5278 76.3973 99.7198 76.344C99.9225 76.2907 100.077 76.1947 100.184 76.056C100.301 75.9173 100.381 75.7253 100.424 75.48C100.467 75.2453 100.488 74.936 100.488 74.552V68.568C100.488 67.9493 100.477 67.4427 100.456 67.048C100.445 66.6533 100.419 66.3813 100.376 66.232C100.323 65.976 100.2 65.8053 100.008 65.72C99.8158 65.624 99.4532 65.576 98.9198 65.576V65.032L101.992 64.424V65.672ZM102.472 66.136C102.333 66.3493 102.227 66.6053 102.152 66.904C102.088 67.192 102.056 67.5707 102.056 68.04V69.288C102.056 69.576 102.061 69.8267 102.072 70.04C102.093 70.2427 102.12 70.4187 102.152 70.568C102.184 70.7173 102.227 70.8507 102.28 70.968C102.333 71.0853 102.403 71.1973 102.488 71.304C102.733 71.6453 103.027 71.912 103.368 72.104C103.709 72.2853 104.067 72.376 104.44 72.376C105.176 72.376 105.768 72.0667 106.216 71.448C106.675 70.8293 106.904 69.96 106.904 68.84C106.904 68.2853 106.84 67.784 106.712 67.336C106.595 66.8773 106.424 66.488 106.2 66.168C105.976 65.8373 105.704 65.5813 105.384 65.4C105.075 65.2187 104.728 65.128 104.344 65.128C103.96 65.128 103.603 65.2187 103.272 65.4C102.952 65.5707 102.685 65.816 102.472 66.136ZM115.075 68.264C114.467 68.4987 113.95 68.728 113.523 68.952C113.107 69.176 112.771 69.4 112.515 69.624C112.259 69.848 112.073 70.072 111.955 70.296C111.849 70.52 111.795 70.7493 111.795 70.984C111.795 71.336 111.913 71.624 112.147 71.848C112.382 72.072 112.691 72.184 113.075 72.184C113.353 72.184 113.609 72.1147 113.843 71.976C114.089 71.8373 114.302 71.6507 114.483 71.416C114.665 71.1707 114.809 70.888 114.915 70.568C115.022 70.2373 115.075 69.8907 115.075 69.528V68.264ZM115.075 67.576V66.92C115.075 65.6187 114.521 64.968 113.411 64.968C113.23 64.968 113.075 64.984 112.947 65.016C112.819 65.048 112.713 65.1013 112.627 65.176C112.542 65.2507 112.462 65.3573 112.387 65.496C112.323 65.6347 112.259 65.8053 112.195 66.008C112.078 66.3173 111.961 66.5253 111.843 66.632C111.737 66.728 111.577 66.776 111.363 66.776C110.83 66.776 110.563 66.5093 110.563 65.976C110.563 65.464 110.835 65.0693 111.379 64.792C111.923 64.504 112.697 64.36 113.699 64.36C114.766 64.36 115.523 64.552 115.971 64.936C116.419 65.3093 116.643 65.9493 116.643 66.856V70.44C116.643 71.656 116.883 72.264 117.363 72.264C117.513 72.264 117.657 72.248 117.795 72.216C117.934 72.1733 118.051 72.072 118.147 71.912L118.371 72.296C118.243 72.5413 118.009 72.7493 117.667 72.92C117.326 73.08 116.969 73.16 116.595 73.16C116.126 73.16 115.774 73.0107 115.539 72.712C115.315 72.4133 115.203 71.992 115.203 71.448H115.123C114.846 71.9707 114.462 72.3867 113.971 72.696C113.481 72.9947 112.937 73.144 112.339 73.144C111.667 73.144 111.139 72.9733 110.755 72.632C110.371 72.2907 110.179 71.832 110.179 71.256C110.179 71 110.222 70.7547 110.307 70.52C110.403 70.2853 110.553 70.0613 110.755 69.848C110.958 69.6347 111.225 69.4267 111.555 69.224C111.886 69.0107 112.291 68.7973 112.771 68.584L115.075 67.576ZM121.903 70.456C121.903 70.8933 121.913 71.24 121.935 71.496C121.956 71.752 122.009 71.9493 122.095 72.088C122.191 72.216 122.324 72.3013 122.495 72.344C122.665 72.3867 122.905 72.4187 123.215 72.44V73H118.959V72.44C119.268 72.4293 119.513 72.4027 119.695 72.36C119.876 72.3067 120.015 72.216 120.111 72.088C120.207 71.96 120.265 71.7787 120.287 71.544C120.319 71.2987 120.335 70.9733 120.335 70.568V68.696C120.335 67.9707 120.324 67.4053 120.303 67C120.292 66.5947 120.239 66.296 120.143 66.104C120.057 65.912 119.919 65.8 119.727 65.768C119.535 65.7253 119.268 65.704 118.927 65.704V65.144L121.727 64.536L121.951 66.52H122.015C122.153 66.2 122.324 65.9067 122.527 65.64C122.74 65.3733 122.969 65.1493 123.215 64.968C123.46 64.776 123.716 64.6267 123.983 64.52C124.249 64.4133 124.521 64.36 124.799 64.36C125.14 64.36 125.407 64.4453 125.599 64.616C125.801 64.776 125.903 64.9947 125.903 65.272C125.903 65.528 125.823 65.7307 125.663 65.88C125.503 66.0187 125.273 66.088 124.975 66.088C124.804 66.088 124.66 66.0667 124.543 66.024C124.425 65.9813 124.319 65.9387 124.223 65.896C124.137 65.8427 124.052 65.7947 123.967 65.752C123.892 65.7093 123.807 65.688 123.711 65.688C123.423 65.688 123.135 65.8747 122.847 66.248C122.559 66.6107 122.335 67.0747 122.175 67.64C122.089 67.9493 122.02 68.3013 121.967 68.696C121.924 69.08 121.903 69.4853 121.903 69.912V70.456ZM126.616 65.528V64.936C127.181 64.6053 127.624 64.2747 127.944 63.944C128.264 63.6133 128.509 63.2187 128.68 62.76H129.144V64.776H131.288V65.528H129.144V70.392C129.144 70.7653 129.16 71.08 129.192 71.336C129.234 71.592 129.298 71.8 129.384 71.96C129.469 72.1093 129.581 72.216 129.72 72.28C129.858 72.344 130.034 72.376 130.248 72.376C130.514 72.376 130.738 72.3227 130.92 72.216C131.112 72.0987 131.298 71.9067 131.48 71.64L131.88 71.944C131.73 72.3387 131.469 72.6427 131.096 72.856C130.733 73.0587 130.28 73.16 129.736 73.16C129.032 73.16 128.493 72.9947 128.12 72.664C127.757 72.3227 127.576 71.8373 127.576 71.208V65.528H126.616ZM136.518 75.512C136.028 76.6107 135.265 77.16 134.23 77.16C133.558 77.16 133.222 76.9093 133.222 76.408C133.222 76.1413 133.313 75.944 133.494 75.816C133.686 75.6987 134.033 75.5973 134.534 75.512C134.758 75.48 134.95 75.432 135.11 75.368C135.27 75.3147 135.414 75.24 135.542 75.144C135.67 75.0587 135.782 74.9467 135.878 74.808C135.985 74.6693 136.086 74.4987 136.182 74.296L136.742 73.176L133.67 66.504C133.532 66.2053 133.409 65.9707 133.302 65.8C133.206 65.6187 133.1 65.48 132.982 65.384C132.876 65.2773 132.753 65.208 132.614 65.176C132.476 65.1333 132.3 65.1013 132.086 65.08V64.52H136.326V65.08C135.612 65.08 135.254 65.256 135.254 65.608C135.254 65.7467 135.297 65.9653 135.382 66.264C135.468 66.5627 135.574 66.8667 135.702 67.176L137.462 71.432H137.542L138.998 67.832C139.137 67.48 139.249 67.192 139.334 66.968C139.43 66.744 139.5 66.5627 139.542 66.424C139.596 66.2747 139.628 66.152 139.638 66.056C139.66 65.96 139.67 65.8693 139.67 65.784C139.67 65.5067 139.59 65.32 139.43 65.224C139.281 65.128 138.988 65.08 138.55 65.08V64.52H142.07V65.08C141.868 65.08 141.697 65.1067 141.558 65.16C141.42 65.2133 141.276 65.336 141.126 65.528C140.988 65.7093 140.828 65.976 140.646 66.328C140.476 66.68 140.262 67.1547 140.006 67.752L136.518 75.512Z" fill="white"/>
<defs>
<clipPath id="clip0_53_284">
<rect width="24" height="24" fill="white" transform="translate(81.2178 23)"/>
</clipPath>
</defs>
</svg>
